<svg width="24" height="24" viewBox="0 0 24 24" fill="none" xmlns="http://www.w3.org/2000/svg">
<path d="M12 1C5.95 1 1 5.95 1 12C1 18.05 5.95 23 12 23C18.05 23 23 18.05 23 12C23 5.95 18.05 1 12 1ZM17.775 20.25L15.3917 19.425L15.2083 18.6917C17.5 18.325 18.6917 17.5917 18.6917 17.5917C18.7833 17.5 18.875 17.4083 18.875 17.225C18.875 17.0417 18.7833 16.95 18.6917 16.8583C18.6917 16.8583 17.1333 15.575 17.1333 11.175C17.1333 7.41667 16.2167 5.49167 14.475 5.49167H14.2C13.7417 4.94167 13.2833 4.66667 12 4.66667C10.35 4.66667 6.775 6.31667 6.775 11.175C6.775 15.575 5.21667 16.8583 5.21667 16.8583C5.125 16.95 5.03333 17.1333 5.03333 17.225C5.03333 17.4083 5.125 17.5 5.21667 17.5917C5.30833 17.5917 6.40833 18.325 8.7 18.6917L8.51667 19.425L6.225 20.25C3.65833 18.4167 1.91667 15.3917 1.91667 12C1.91667 6.40833 6.40833 1.91667 12 1.91667C17.5917 1.91667 22.0833 6.40833 22.0833 12C22.0833 15.3917 20.3417 18.4167 17.775 20.25Z" fill="#FE572A"/>
</svg>
