<svg width="60" height="60" viewBox="0 0 60 60" fill="none" xmlns="http://www.w3.org/2000/svg">
<g clip-path="url(#clip0_199_777)">
<path d="M23.887 27.6656C23.8726 27.6656 23.8579 27.6683 23.8438 27.6738C23.782 27.6979 23.7512 27.7679 23.7751 27.8302C24.4248 29.5245 24.388 31.8127 23.0404 32.7161C22.261 33.2385 21.2953 33.0362 20.3916 32.1608C20.3438 32.1147 20.2679 32.116 20.2219 32.1642C20.1761 32.2123 20.1775 32.2888 20.2253 32.3352C21.6341 33.6997 22.7562 33.1969 23.1733 32.9173C24.284 32.1728 24.9244 30.1563 23.9989 27.7429C23.9804 27.6951 23.9351 27.6657 23.887 27.6656Z" fill="#DD5758"/>
<path d="M13.061 22.0419C12.7502 22.0419 12.4805 22.1154 12.253 22.2627C11.5444 22.7215 11.2627 23.8546 11.3917 25.7265C11.3962 25.7931 11.4548 25.8422 11.5197 25.8387C11.5858 25.8341 11.6356 25.7763 11.6311 25.7097C11.5105 23.9586 11.7634 22.8673 12.3829 22.4662C12.9063 22.127 13.7243 22.258 14.8139 22.8545C14.8723 22.8864 14.9451 22.8647 14.9767 22.806C15.0083 22.7474 14.9867 22.674 14.9285 22.642C14.1983 22.2421 13.5737 22.0419 13.061 22.0419Z" fill="#DD5758"/>
<path d="M7.56218 37.0169C7.04174 37.0169 6.6773 37.1838 6.42614 37.5338C6.38726 37.5878 6.39926 37.6634 6.45302 37.7026C6.50654 37.7418 6.58178 37.7297 6.62054 37.6755C6.85286 37.3519 7.21886 37.2223 7.77086 37.2677C7.83794 37.2733 7.89482 37.2236 7.90022 37.1571C7.90562 37.0904 7.85642 37.0322 7.79042 37.0267C7.71134 37.0202 7.63526 37.0169 7.56218 37.0169Z" fill="#DD5758"/>
<path d="M6.33267 36.9534C6.27567 36.9534 6.22515 36.9944 6.21471 37.053C6.16563 37.3268 6.09879 37.4837 6.03099 37.4837C5.98323 37.4837 5.96475 37.4684 5.95407 37.4549C5.90379 37.3922 5.91627 37.2379 5.93019 37.1731C5.94411 37.1079 5.90319 37.0434 5.83851 37.0293C5.77407 37.0155 5.71011 37.056 5.69571 37.1211C5.68875 37.1529 5.63139 37.4364 5.76675 37.6062C5.81007 37.6608 5.89119 37.7256 6.03099 37.7256C6.30171 37.7256 6.39519 37.4073 6.45087 37.0958C6.46263 37.0301 6.41931 36.9672 6.35403 36.9554C6.34695 36.9541 6.33975 36.9534 6.33267 36.9534Z" fill="#DD5758"/>
<path d="M5.33975 37.0915C5.28995 37.0915 5.24339 37.123 5.22623 37.1731C5.19359 37.2684 5.09099 37.4695 4.98263 37.4829C4.91015 37.4927 4.80815 37.4056 4.70495 37.246C4.66883 37.19 4.59455 37.1741 4.53887 37.2107C4.48331 37.2472 4.46771 37.3221 4.50383 37.3781C4.66607 37.629 4.83671 37.745 5.01251 37.723C5.29787 37.687 5.43827 37.2959 5.45327 37.2516C5.47463 37.1884 5.44127 37.1199 5.37863 37.0982C5.36579 37.0935 5.35271 37.0915 5.33975 37.0915Z" fill="#DD5758"/>
<path d="M6.34216 25.9537C6.27688 25.9537 6.22264 25.9618 6.1864 25.9693C5.76244 26.057 5.33884 26.5032 5.40904 27.0035C5.4184 27.0695 5.479 27.1153 5.54464 27.1063C5.61028 27.097 5.65588 27.0358 5.64664 26.9696C5.5966 26.6126 5.9158 26.2722 6.23452 26.2062C6.56404 26.1382 6.82528 26.3653 6.9502 26.8303C6.96748 26.8948 7.0336 26.9327 7.09744 26.9155C7.1614 26.8979 7.1992 26.8316 7.18192 26.7671C6.99448 26.0692 6.58924 25.9538 6.34216 25.9537Z" fill="#DD5758"/>
<path d="M5.4525 25.7062C5.43102 25.7062 5.40942 25.7088 5.38758 25.7138C5.03214 25.7968 4.92606 26.5605 5.00922 27.0499C5.02038 27.1157 5.08194 27.1598 5.14782 27.1487C5.2131 27.1374 5.25702 27.0749 5.24586 27.009C5.15682 26.4851 5.32266 25.9772 5.4417 25.9494C5.44518 25.9494 5.65362 25.9299 5.93922 26.9113C5.95794 26.9754 6.02478 27.0121 6.08814 26.9933C6.15174 26.9745 6.18822 26.9073 6.1695 26.8432C5.94738 26.0798 5.71218 25.7062 5.4525 25.7062Z" fill="#DD5758"/>
<path d="M4.00574 26.1873C3.99254 26.1873 3.97934 26.1879 3.96614 26.1892C3.67382 26.2173 3.4559 26.544 3.31838 27.16C3.30386 27.2252 3.34442 27.2899 3.4091 27.3045C3.47402 27.3195 3.53798 27.2783 3.5525 27.2131C3.66002 26.7318 3.81902 26.4463 3.98894 26.4299C4.16834 26.4141 4.41518 26.69 4.60154 27.1204C4.62806 27.1816 4.69898 27.2096 4.75946 27.1829C4.82018 27.1562 4.8479 27.0849 4.8215 27.0237C4.5899 26.4887 4.29458 26.1873 4.00574 26.1873Z" fill="#DD5758"/>
<path d="M0 38.2559C3.76608 37.61 15.3379 36.3603 18.2983 34.1803C21.2587 32.0003 25.2093 25.2253 27.5575 23.9351C29.9058 22.6451 31.2997 22.3738 31.8867 22.3221C32.4737 22.2703 37.1166 23.0607 37.8128 22.3327C38.509 21.6046 37.8582 21.2119 37.8582 21.2119C37.8582 21.2119 41.4986 22.2897 42.418 21.5205C43.0376 21.0022 42.6591 20.5071 42.6591 20.5071C42.6591 20.5071 44.6289 20.0631 44.0673 18.7748C43.8842 18.3547 42.941 18.1932 42.941 18.1932C43.2429 17.2205 41.0196 16.5939 40.183 16.4209C37.561 15.8792 26.517 14.4249 21.8403 16.8915C17.0484 19.4188 14.0323 24.389 11.5119 25.7184C9.18421 26.946 4.17504 27.3468 0 27.5502V38.2559Z" fill="white"/>
<path d="M42.9409 18.0715C42.8888 18.0715 42.841 18.106 42.8257 18.1589C42.5826 19.006 41.8345 19.2427 39.4898 19.22C38.7518 19.2124 38.0093 19.1717 37.2911 19.1324C35.8287 19.0524 34.4475 18.9769 33.5671 19.226C32.3055 19.5832 29.5154 20.288 29.4873 20.295C29.423 20.3112 29.384 20.3769 29.4001 20.4417C29.4162 20.5065 29.4812 20.5456 29.5457 20.5296C29.5737 20.5225 32.3671 19.817 33.6319 19.4589C34.4741 19.2205 35.8359 19.2951 37.2779 19.3739C37.9986 19.4133 38.7439 19.4541 39.4872 19.4618C42.214 19.4894 42.8094 19.0856 43.056 18.2262C43.0745 18.1621 43.0378 18.095 42.974 18.0765C42.9632 18.0731 42.952 18.0715 42.9409 18.0715Z" fill="#E0390C"/>
<path d="M34.2508 19.1022C34.197 19.1022 34.1482 19.1388 34.1345 19.1937C34.1183 19.2585 34.1574 19.3242 34.2218 19.3404C39.239 20.6085 41.2948 20.9208 42.6836 20.6253C42.7484 20.6115 42.7899 20.5473 42.7762 20.482C42.7624 20.4167 42.6989 20.375 42.634 20.3886C41.2868 20.6752 39.2567 20.3636 34.2802 19.1059C34.2704 19.1034 34.2605 19.1022 34.2508 19.1022Z" fill="#E0390C"/>
<path d="M31.7763 20.6115C30.6792 20.6115 29.574 20.6788 28.5599 20.8607C28.4946 20.8724 28.4512 20.9352 28.4628 21.001C28.4743 21.0668 28.5365 21.111 28.602 21.0988C31.5519 20.5696 35.304 21.024 37.3198 21.2682C37.5083 21.2911 37.6839 21.3124 37.8446 21.3311C37.9104 21.3393 37.97 21.2913 37.9775 21.2249C37.9852 21.1587 37.938 21.0986 37.8722 21.0909C37.7117 21.0722 37.5366 21.0509 37.3484 21.0281C36.0093 20.8659 33.9084 20.6115 31.7763 20.6115Z" fill="#E0390C"/>
<path d="M27.3045 21.4286C27.2399 21.4286 27.1867 21.4804 27.1846 21.5458L27.1808 21.6617C27.1433 22.7757 27.044 25.7349 29.068 27.4721C29.1184 27.5154 29.1941 27.5093 29.2372 27.4584C29.2802 27.4076 29.2742 27.3312 29.2237 27.2879C27.2878 25.6263 27.3843 22.7519 27.4208 21.6698L27.4246 21.5533C27.4267 21.4866 27.3747 21.4307 27.3085 21.4286C27.307 21.4286 27.3057 21.4286 27.3045 21.4286Z" fill="#DD5758"/>
<path d="M21.6131 17.6481C21.4013 17.6481 21.2299 17.7194 21.1032 17.8605C20.8513 18.1408 20.7923 18.6843 20.9226 19.5217C20.9328 19.5877 20.9948 19.6326 21.0598 19.6224C21.1253 19.6121 21.17 19.5502 21.1597 19.4842C21.0144 18.5499 21.1456 18.1738 21.2812 18.0228C21.3691 17.9248 21.4915 17.8815 21.6558 17.8912C22.043 17.9132 22.4605 18.0522 22.8962 18.3042C24.486 19.2236 25.9528 21.4406 26.3273 22.4234C26.351 22.4859 26.4208 22.5168 26.4823 22.4929C26.5442 22.469 26.5751 22.3991 26.5513 22.3367C26.1884 21.3846 24.7339 19.0882 23.0158 18.0945C22.5473 17.8235 22.0943 17.6739 21.6694 17.6497C21.6503 17.6487 21.6316 17.6481 21.6131 17.6481Z" fill="#DD5758"/>
<path d="M24.7945 16.8444C24.7391 16.8444 24.6839 16.8517 24.6293 16.8663C24.2982 16.9552 24.0732 17.2982 24.0423 17.7614C24.0378 17.8281 24.0877 17.8858 24.1539 17.8902C24.2205 17.8957 24.2772 17.8443 24.2817 17.7778C24.3055 17.4211 24.4624 17.1615 24.6911 17.1002C24.9174 17.0396 25.1739 17.1867 25.3771 17.4939C25.4137 17.5494 25.4883 17.5646 25.5436 17.5274C25.5987 17.4904 25.6135 17.4153 25.5768 17.3597C25.3573 17.0278 25.0743 16.8444 24.7945 16.8444Z" fill="#DD5758"/>
<path d="M16.1338 23.7039C16.0564 23.6232 16.0586 23.4945 16.1385 23.4164C17.9257 21.6739 22.4635 18.4139 23.1554 18.0887C23.456 17.9475 24.1706 17.7631 25.0753 17.5296C26.1214 17.2595 27.3073 16.9536 28.0563 16.6554C28.8796 16.3276 29.6283 16.0551 30.2206 16.0551C30.4627 16.0551 30.6788 16.1005 30.863 16.2066C31.1396 16.3657 31.3411 16.6428 31.3735 17.0406C31.3996 17.3627 31.092 18.8048 29.9084 20.0681C28.9143 21.129 26.2082 21.9027 25.7779 22.1604C25.3476 22.4181 23.3355 25.6182 23.3355 25.6182L16.1338 23.7039Z" fill="white"/>
<path d="M30.2213 15.9345C29.5944 15.9345 28.819 16.2225 28.0129 16.5433C27.2711 16.8386 26.0898 17.1434 25.0476 17.4125C24.1352 17.648 23.416 17.8335 23.1053 17.9796C22.4093 18.3067 17.8495 21.5811 16.0557 23.33C15.9284 23.4544 15.9251 23.66 16.0482 23.7883C16.0943 23.8364 16.1703 23.8377 16.2179 23.7912C16.2655 23.7448 16.2668 23.6682 16.2207 23.6202C16.1894 23.5875 16.1904 23.5352 16.2227 23.5036C18.0035 21.7673 22.5192 18.5218 23.2068 18.1987C23.4972 18.0623 24.2069 17.8791 25.1056 17.6471C26.1562 17.376 27.3452 17.0691 28.101 16.7682C28.8847 16.4563 29.6366 16.1764 30.2213 16.1764C30.4549 16.1764 30.6456 16.2208 30.8042 16.3119C30.9911 16.4193 31.2208 16.6348 31.2545 17.0508C31.2776 17.336 30.9912 18.7372 29.8217 19.9854C29.1157 20.7388 27.4828 21.3588 26.507 21.7292C26.1214 21.8757 25.8427 21.9815 25.7171 22.0566C25.2748 22.3214 23.4421 25.2236 23.2345 25.5536C23.1991 25.61 23.2157 25.6848 23.2716 25.7205C23.3275 25.7562 23.4017 25.7395 23.4372 25.683C24.2399 24.4065 25.542 22.4427 25.8396 22.2646C25.947 22.2002 26.2315 22.0922 26.5915 21.9555C27.5866 21.5777 29.252 20.9454 29.996 20.1513C31.2106 18.8551 31.5227 17.39 31.4935 17.031C31.4605 16.6243 31.258 16.2943 30.923 16.1016C30.7273 15.9892 30.4976 15.9345 30.2213 15.9345Z" fill="#E0390C"/>
<path d="M30.4277 15.934C30.3745 15.934 30.3259 15.9699 30.3118 16.0242C30.2948 16.0888 30.333 16.1548 30.397 16.1719H30.3968C30.3928 16.1719 30.5318 16.2542 30.6301 16.7365C30.6571 16.8689 30.5862 17.0676 30.4306 17.2959C30.0355 17.8758 29.1533 18.5552 28.3607 18.6882C27.3316 18.8612 27.0601 18.0169 26.8535 17.0602C26.8394 16.9949 26.7755 16.9536 26.7107 16.9679C26.6459 16.982 26.6048 17.0465 26.619 17.1118C26.7838 17.8748 27.06 19.1525 28.4002 18.9268C29.2556 18.7831 30.205 18.0544 30.6283 17.4328C30.8239 17.1457 30.9059 16.888 30.8651 16.6878C30.7369 16.0582 30.5212 15.9547 30.4582 15.938C30.4481 15.9354 30.4378 15.934 30.4277 15.934Z" fill="#E0390C"/>
<path d="M3.43615 27.0648C3.38131 27.0648 3.33175 27.1029 3.31915 27.1592C3.03103 28.4497 2.89507 34.8899 4.50379 37.3777C4.54003 37.4337 4.61443 37.4494 4.66987 37.413C4.72543 37.3765 4.74103 37.3016 4.70491 37.2456C3.13075 34.8112 3.26995 28.4821 3.55339 27.2122C3.56791 27.1471 3.52735 27.0824 3.46267 27.0677C3.45367 27.0658 3.44491 27.0648 3.43615 27.0648Z" fill="#DD5758"/>
<path d="M6.0537 26.7572C6.04254 26.7572 6.03114 26.7588 6.01986 26.7622C5.95626 26.7809 5.91978 26.8482 5.9385 26.9122C6.39822 28.4921 6.57582 35.0318 6.2139 37.0536C6.20214 37.1194 6.24546 37.1823 6.31062 37.1942C6.3759 37.2067 6.4383 37.1624 6.45006 37.0967C6.81546 35.0549 6.63414 28.4436 6.16878 26.8443C6.15342 26.7914 6.10566 26.7572 6.0537 26.7572Z" fill="#DD5758"/>
<path d="M7.06541 26.6787C7.05509 26.6787 7.04453 26.68 7.03397 26.6829C6.97001 26.7005 6.93221 26.7667 6.94949 26.8313C7.31549 28.1944 7.43969 36.833 6.96041 37.2403C6.91589 37.2706 6.73049 37.2132 6.60797 37.1754C6.31073 37.0837 5.90369 36.9581 5.63945 37.2598C5.50781 37.41 5.51573 37.5379 5.54561 37.6187C5.59757 37.7596 5.75921 37.8614 5.97785 37.8914C6.18281 37.9195 6.47429 37.8798 6.62057 37.6758C6.65945 37.6217 6.64745 37.546 6.59369 37.507C6.54005 37.4677 6.46493 37.4799 6.42617 37.5341C6.35885 37.6277 6.18773 37.6759 6.01013 37.6517C5.87441 37.6332 5.78681 37.5786 5.77049 37.5343C5.75729 37.4984 5.79545 37.4471 5.81933 37.4198C5.96969 37.2483 6.21185 37.3061 6.53765 37.4066C6.76157 37.4759 6.95489 37.5355 7.09541 37.4401C7.47101 37.1851 7.53113 34.57 7.51529 32.4212C7.49909 30.224 7.37645 27.4961 7.18097 26.7681C7.16669 26.7141 7.11833 26.6787 7.06541 26.6787Z" fill="#DD5758"/>
<path d="M24.1616 17.6481C24.099 17.6481 24.0462 17.6971 24.0419 17.761C23.9831 18.6396 24.6128 22.0927 25.1628 23.1433C25.4944 23.7767 25.9584 23.9158 26.2709 23.773C26.6102 23.6178 26.8422 23.1022 26.5505 22.3366C26.5268 22.2742 26.457 22.2431 26.3955 22.2671C26.3336 22.291 26.3027 22.3609 26.3265 22.4233C26.552 23.0151 26.4194 23.4395 26.1717 23.5528C25.9616 23.6489 25.6337 23.5246 25.375 23.0305C24.8519 22.0312 24.2254 18.6128 24.2813 17.7774C24.2858 17.7108 24.2358 17.6531 24.1697 17.6486C24.167 17.6481 24.1643 17.6481 24.1616 17.6481Z" fill="#DD5758"/>
<path d="M21.0127 19.1814C21.0065 19.1814 21.0003 19.1819 20.994 19.1828C20.9285 19.1931 20.8837 19.255 20.8941 19.3211C21.1969 21.2674 22.4899 24.556 23.3457 26.732C23.5073 27.143 23.6535 27.5149 23.7747 27.8309C23.7985 27.8932 23.868 27.9241 23.9298 27.9C23.9916 27.876 24.0223 27.806 23.9985 27.7437C23.877 27.427 23.7306 27.0545 23.5687 26.6429C22.717 24.4768 21.4299 21.2033 21.1311 19.2836C21.1218 19.224 21.0708 19.1814 21.0127 19.1814Z" fill="#DD5758"/>
<path d="M11.5118 25.5971C11.5091 25.5971 11.5063 25.5972 11.5034 25.5975C11.4373 25.6021 11.3875 25.6599 11.3921 25.7265C11.424 26.1904 11.4786 26.7765 11.5417 27.4551C11.7882 30.1054 12.1608 34.1104 11.6385 36.1675C11.3684 37.2316 9.72958 37.1313 8.5327 37.0579C8.25418 37.0408 7.99186 37.025 7.78018 37.0264C7.71394 37.0269 7.66066 37.0816 7.66114 37.1483C7.66162 37.2147 7.71538 37.2683 7.78114 37.2683C7.78894 37.2688 7.80178 37.2682 7.81246 37.2682C8.01022 37.2682 8.2573 37.2833 8.51818 37.2992C9.79822 37.3776 11.5517 37.4853 11.871 36.2274C12.4035 34.1297 12.0287 30.0994 11.7806 27.4326C11.7176 26.7555 11.6633 26.1707 11.6315 25.7097C11.627 25.6459 11.5743 25.5971 11.5118 25.5971Z" fill="#DD5758"/>
<path d="M54.052 21.7643C53.8011 21.7643 53.5101 21.8523 53.3755 22.0423C53.36 22.0642 53.3528 22.0894 53.3532 22.1145C53.2056 22.0777 53.0773 22.0669 52.9766 22.1361C52.6086 22.3892 52.7094 24.3324 53.0926 28.8833C53.2249 30.4524 53.3547 32.4658 53.3528 33.1825C53.3527 33.2493 53.4062 33.3036 53.4726 33.3037H53.4728C53.5389 33.3037 53.5927 33.2498 53.5928 33.183C53.5947 32.4558 53.4644 30.4373 53.3318 28.8627C53.1219 26.3701 52.8046 22.6031 53.1128 22.335C53.1576 22.3047 53.3428 22.3607 53.4656 22.3977C53.7633 22.4877 54.1711 22.6108 54.4336 22.3073C54.5558 22.1662 54.5499 22.0529 54.5236 21.9828C54.4814 21.8704 54.3586 21.7956 54.1782 21.772C54.138 21.7669 54.0956 21.7643 54.052 21.7643ZM53.5742 22.1781C53.6694 22.0516 53.9389 21.9894 54.1333 22.0102C54.2461 22.0224 54.2943 22.0573 54.2991 22.0686C54.2991 22.0686 54.3 22.0939 54.2527 22.1486C54.1095 22.3141 53.8807 22.269 53.5742 22.1781Z" fill="#DD5758"/>
<path d="M55.4555 21.7397C55.2853 21.7397 54.9912 21.8769 54.8751 22.7666C54.8664 22.8327 54.9126 22.8936 54.9784 22.9023C55.0429 22.911 55.1043 22.8644 55.1129 22.7982C55.1979 22.1491 55.3672 21.985 55.4574 21.9816C55.5526 21.9839 55.6777 22.1611 55.6966 22.3863C55.7021 22.4528 55.7591 22.5024 55.8263 22.4967C55.8923 22.4911 55.9414 22.4326 55.9359 22.366C55.9069 22.0205 55.6993 21.7455 55.4632 21.7398C55.4605 21.7397 55.458 21.7397 55.4555 21.7397Z" fill="#DD5758"/>
<path d="M55.5624 32.6403C55.5496 32.6403 55.5364 32.6425 55.5235 32.6469C55.4608 32.6686 55.4274 32.7374 55.4489 32.8005C55.5789 33.1825 55.4524 33.4333 55.2694 33.5125C55.0695 33.5989 54.7525 33.4962 54.5302 33.0664C54.4997 33.0072 54.4271 32.9841 54.3683 33.015C54.3095 33.0459 54.2867 33.1189 54.3173 33.1782C54.6103 33.745 55.0655 33.864 55.3639 33.7349C55.6396 33.6157 55.8546 33.248 55.6758 32.7223C55.6589 32.6718 55.6123 32.6403 55.5624 32.6403Z" fill="#DD5758"/>
<path d="M56.8865 32.5227C56.8223 32.5227 56.7691 32.5738 56.7666 32.6391C56.7551 32.9479 56.6001 33.1688 56.5027 33.1796C56.4447 33.1864 56.3533 33.0849 56.2909 32.8431C56.2741 32.7786 56.2087 32.7399 56.1445 32.7565C56.0804 32.7734 56.0419 32.8394 56.0586 32.9041C56.1827 33.3844 56.4068 33.4333 56.5286 33.4201C56.7813 33.3923 56.9911 33.0533 57.0063 32.6483C57.0089 32.5816 56.9571 32.5254 56.8909 32.5229C56.8895 32.5227 56.8879 32.5227 56.8865 32.5227Z" fill="#DD5758"/>
<path d="M47.6892 34.9248C47.6795 34.9248 47.6695 34.926 47.6597 34.9286C47.5954 34.945 47.5566 35.0108 47.5728 35.0755C47.8295 36.0964 47.7942 36.825 47.4781 37.0243C47.2175 37.1887 46.7311 36.9967 46.1436 36.4976C46.093 36.4547 46.0171 36.4611 45.9745 36.5121C45.9318 36.5632 45.9383 36.6395 45.9889 36.6825C46.8635 37.4256 47.3508 37.3902 47.6056 37.2292C48.0265 36.9637 48.0976 36.1778 47.8055 35.0161C47.7917 34.9612 47.7429 34.9248 47.6892 34.9248Z" fill="#DD5758"/>
<path d="M38.1901 28.6622C37.8452 28.6622 37.5575 28.7763 37.3569 29.0014C36.9776 29.4272 36.9831 30.1752 37.3708 30.9066C37.4019 30.9655 37.4745 30.9881 37.5332 30.9563C37.5916 30.9248 37.6137 30.8515 37.5825 30.7927C37.2429 30.152 37.2245 29.5124 37.5356 29.163C37.8142 28.85 38.3095 28.8163 38.9299 29.068C38.9915 29.0929 39.0613 29.0629 39.086 29.001C39.1107 28.939 39.0809 28.8685 39.0195 28.8436C38.7206 28.7223 38.4403 28.6622 38.1901 28.6622Z" fill="#DD5758"/>
<path d="M44.2239 38.3862C44.2037 38.3862 44.1831 38.3914 44.1642 38.4023C44.1067 38.4356 44.0869 38.5096 44.12 38.5674C44.4012 39.0598 44.4584 39.4291 44.2903 39.6652C44.0088 40.0606 43.1389 40.0386 42.785 39.9678C42.72 39.9547 42.6569 39.9973 42.6439 40.0628C42.6311 40.1284 42.6733 40.192 42.7382 40.205C43.0704 40.2714 44.1044 40.3411 44.4852 39.8062C44.7131 39.4862 44.6601 39.0289 44.3279 38.4468C44.3059 38.408 44.2655 38.3862 44.2239 38.3862Z" fill="#DD5758"/>
<path d="M60.0003 21.7444C56.2342 22.3903 44.9648 23.64 42.0044 25.82C39.044 28 35.0935 34.775 32.7452 36.0651C30.3969 37.3552 29.003 37.6264 28.4161 37.6782C27.8291 37.73 23.1861 36.9396 22.49 37.6676C21.7938 38.3957 22.4445 38.7883 22.4445 38.7883C22.4445 38.7883 18.8042 37.7106 17.8848 38.4797C17.2652 38.998 17.6437 39.4931 17.6437 39.4931C17.6437 39.4931 15.6739 39.9372 16.2355 41.2254C16.4186 41.6455 17.3618 41.807 17.3618 41.807C17.0599 42.7796 19.2831 43.4063 20.1198 43.5792C22.7419 44.121 33.7858 45.5753 38.4625 43.1087C43.2544 40.5814 46.2704 35.6112 48.7908 34.2818C51.1186 33.0541 55.8252 32.6533 60.0003 32.4499V21.7444Z" fill="#FF7548"/>
<path d="M30.7856 39.4667C30.7759 39.4667 30.7662 39.468 30.7563 39.4704C30.7282 39.4775 27.9349 40.183 26.6701 40.5412C25.8278 40.7797 24.4659 40.7052 23.0241 40.6262C22.3034 40.5868 21.5581 40.546 20.8148 40.5384C18.0896 40.5098 17.4927 40.9146 17.246 41.7741C17.2275 41.8382 17.2642 41.9053 17.328 41.9238C17.3914 41.9427 17.4582 41.9055 17.4765 41.8412C17.7198 40.9941 18.4699 40.7554 20.8124 40.7802C21.5504 40.7878 22.293 40.8284 23.0112 40.8677C24.4735 40.9478 25.8547 41.0232 26.7351 40.7741C27.9967 40.4169 30.7868 39.7121 30.8149 39.7051C30.8792 39.6889 30.9182 39.6232 30.9021 39.5584C30.8882 39.5034 30.8394 39.4667 30.7856 39.4667Z" fill="#E0390C"/>
<path d="M18.7008 39.2722C18.2872 39.2722 17.9355 39.308 17.6187 39.3754C17.5539 39.3892 17.5124 39.4534 17.526 39.5187C17.5397 39.5842 17.6033 39.626 17.6682 39.6121C19.0158 39.3254 21.0455 39.637 26.0221 40.8948C26.0864 40.911 26.1515 40.8717 26.1676 40.8069C26.1838 40.7421 26.1447 40.6764 26.0804 40.6602C22.2083 39.6814 20.0999 39.2722 18.7008 39.2722Z" fill="#E0390C"/>
<path d="M22.4441 38.6671C22.384 38.6671 22.3321 38.7124 22.325 38.7741C22.3174 38.8403 22.3645 38.9004 22.4304 38.9081C22.5907 38.9268 22.7659 38.9481 22.9542 38.9709C24.9823 39.2167 28.7575 39.674 31.7426 39.1383C31.8079 39.1266 31.8514 39.0638 31.8397 38.998C31.8281 38.9322 31.7656 38.8887 31.7005 38.9002C28.7506 39.4294 24.9984 38.9749 22.9828 38.7308C22.7942 38.7079 22.6187 38.6866 22.4581 38.6679C22.4533 38.6673 22.4486 38.6671 22.4441 38.6671Z" fill="#E0390C"/>
<path d="M38.9746 28.8348C38.927 28.8348 38.882 28.8634 38.8632 28.9106C38.8385 28.9725 38.8682 29.043 38.9297 29.0679C39.8778 29.4526 41.9012 31.9072 43.527 33.8795C44.576 35.152 45.4819 36.251 45.9896 36.6824C46.0403 36.7256 46.1159 36.719 46.1587 36.6679C46.2014 36.6168 46.195 36.5405 46.1443 36.4975C45.6528 36.0799 44.7533 34.9886 43.7116 33.7249C41.9828 31.6279 40.0236 29.251 39.0192 28.8436C39.0046 28.8376 38.9894 28.8348 38.9746 28.8348Z" fill="#DD5758"/>
<path d="M43.9078 23.5021C43.6822 23.5021 43.4596 23.5586 43.2511 23.6902C42.7435 24.0108 42.5774 24.6606 42.8281 25.3455C42.851 25.4082 42.9202 25.4405 42.9822 25.4171C43.0444 25.394 43.0762 25.3245 43.0532 25.2618C42.8435 24.689 42.9712 24.1526 43.3786 23.8952C43.7886 23.6363 44.5715 23.6522 45.4285 24.5495C46.2115 25.3692 47.1583 27.0792 48.1606 28.8896C49.1318 30.6438 50.136 32.4578 51.0817 33.6207C51.8404 34.5537 52.4671 34.9279 52.9452 34.7332C53.5086 34.5037 53.6213 33.5739 53.5874 33.1596C53.582 33.0931 53.5241 33.0439 53.458 33.0491C53.392 33.0546 53.3428 33.113 53.3482 33.1796C53.3791 33.5604 53.2664 34.3414 52.8551 34.5091C52.6009 34.6122 52.1195 34.5157 51.2671 33.4676C50.335 32.3212 49.336 30.517 48.3698 28.772C47.3598 26.9476 46.4058 25.2244 45.6012 24.382C45.1637 23.9234 44.5242 23.5021 43.9078 23.5021Z" fill="#DD5758"/>
<path d="M53.4549 22.0612C53.3976 22.0612 53.347 22.1025 53.3368 22.1614C52.9962 24.1332 53.5711 31.6532 54.3172 33.1747C54.3465 33.2347 54.4185 33.2592 54.4779 33.2296C54.5373 33.2 54.5616 33.1276 54.5323 33.0677C53.7988 31.5716 53.2368 24.1506 53.5733 22.2029C53.5847 22.1371 53.5409 22.0745 53.4756 22.063C53.4685 22.0618 53.4616 22.0612 53.4549 22.0612Z" fill="#DD5758"/>
<path d="M55.8155 22.2555C55.8094 22.2555 55.8032 22.256 55.7969 22.257C55.7315 22.2673 55.6866 22.3291 55.6967 22.3951C55.884 23.6079 55.9094 26.4384 55.9317 28.9356C55.9497 30.949 55.9641 32.5395 56.058 32.9036C56.0747 32.9682 56.1398 33.007 56.2044 32.9902C56.2686 32.9734 56.307 32.9074 56.2904 32.8427C56.2037 32.5075 56.1881 30.7714 56.1717 28.9333C56.1492 26.4277 56.1238 23.5879 55.934 22.3577C55.9247 22.2982 55.8737 22.2555 55.8155 22.2555Z" fill="#DD5758"/>
<path d="M35.1125 34.4181C35.0525 34.4181 35.0007 34.4633 34.9935 34.5249C34.6874 37.142 36.1631 40.5135 38.03 41.4626C38.0889 41.4927 38.1613 41.4686 38.1911 41.409C38.221 41.3494 38.1971 41.2767 38.138 41.2466C36.3807 40.3534 34.9412 37.0379 35.2318 34.5532C35.2396 34.4868 35.1925 34.4267 35.1267 34.4189C35.122 34.4183 35.1172 34.4181 35.1125 34.4181Z" fill="#DD5758"/>
<path d="M40.9219 39.1478C40.8817 39.1478 40.8423 39.1682 40.8196 39.2052C40.7848 39.2621 40.8024 39.3366 40.8588 39.3718C41.5263 39.7869 42.2468 40.1061 42.7392 40.2046C42.8044 40.2179 42.8673 40.175 42.8803 40.1096C42.8932 40.044 42.8509 39.9804 42.786 39.9673C42.3199 39.8741 41.6298 39.567 40.9849 39.1659C40.9651 39.1536 40.9434 39.1478 40.9219 39.1478Z" fill="#DD5758"/>
<path d="M36.1288 34.724C36.0329 34.724 35.9457 34.755 35.8724 34.8179C35.6787 34.9839 35.6216 35.379 35.9301 35.8875C35.9646 35.9445 36.0384 35.9624 36.0951 35.9275C36.1516 35.8927 36.1694 35.8182 36.1348 35.7613C35.9141 35.3977 35.915 35.0988 36.0278 35.0022C36.1154 34.927 36.2877 34.9782 36.4665 35.1329C36.5166 35.1763 36.5926 35.1706 36.6357 35.1201C36.6789 35.0694 36.6732 34.9931 36.6228 34.9496C36.451 34.8005 36.2794 34.7242 36.1288 34.724Z" fill="#DD5758"/>
<path d="M39.1998 40.4206C39.1884 40.4206 39.1769 40.4223 39.1654 40.4257C39.1019 40.4448 39.0658 40.5123 39.0848 40.5762C39.1812 40.9005 39.1432 41.1747 38.9831 41.3097C38.8104 41.4555 38.5025 41.4328 38.1379 41.2474C38.0785 41.2174 38.0066 41.2414 37.9768 41.301C37.9469 41.3606 37.9708 41.4333 38.0299 41.4634C38.6516 41.7792 38.9906 41.6189 39.1372 41.4951C39.373 41.296 39.4394 40.9266 39.3148 40.5068C39.2992 40.4545 39.2514 40.4206 39.1998 40.4206Z" fill="#DD5758"/>
<path d="M44.1679 36.2955C44.2453 36.3762 44.2432 36.5049 44.1632 36.583C42.3761 38.3255 37.8383 41.5855 37.1464 41.9107C36.8458 42.0519 36.1312 42.2363 35.2265 42.4698C34.1802 42.7399 32.9945 43.0458 32.2454 43.344C31.4221 43.6716 30.6734 43.9443 30.0811 43.9443C29.8391 43.9443 29.6229 43.8989 29.4387 43.7928C29.1621 43.6337 28.9607 43.3566 28.9283 42.9588C28.9021 42.6367 29.2098 41.1946 30.3935 39.9314C31.3875 38.8705 34.0935 38.0968 34.524 37.8391C34.9543 37.5815 36.9664 34.3813 36.9664 34.3813L44.1679 36.2955Z" fill="#FF7548"/>
<path d="M36.9664 34.2605C36.9267 34.2605 36.8878 34.2803 36.8649 34.3167C36.0622 35.5932 34.7601 37.557 34.4625 37.7353C34.3551 37.7996 34.0707 37.9076 33.7106 38.0442C32.7156 38.4221 31.0499 39.0545 30.3059 39.8485C29.0914 41.1446 28.7793 42.6097 28.8085 42.9687C28.8415 43.3754 29.0441 43.7054 29.3789 43.8981C29.5748 44.0108 29.8043 44.0654 30.0808 44.0654C30.7077 44.0654 31.4831 43.7775 32.2892 43.4567C33.031 43.1614 34.2123 42.8565 35.2545 42.5874C36.1669 42.352 36.8862 42.1665 37.1968 42.0204C37.8928 41.6933 42.4526 38.4189 44.2464 36.67C44.294 36.6235 44.2952 36.547 44.2491 36.499C44.2029 36.4511 44.127 36.4498 44.0794 36.4962C42.2986 38.2325 37.7829 41.478 37.0953 41.8013C36.8049 41.9377 36.0952 42.1209 35.1966 42.3528C34.146 42.624 32.9569 42.9309 32.2011 43.2317C31.4174 43.5436 30.6655 43.8236 30.0808 43.8236C29.8472 43.8236 29.6565 43.7792 29.4979 43.6879C29.3111 43.5805 29.0813 43.3651 29.0476 42.949C29.0245 42.6639 29.3109 41.2626 30.4804 40.0145C31.1864 39.2611 32.8195 38.6411 33.7952 38.2706C34.1808 38.1243 34.4594 38.0185 34.585 37.9433C35.0274 37.6785 36.86 34.7763 37.0676 34.4462C37.103 34.3899 37.0864 34.315 37.0304 34.2793C37.0106 34.2666 36.9884 34.2605 36.9664 34.2605Z" fill="#E0390C"/>
<path d="M32.2007 41.0462C32.1075 41.0462 32.008 41.0545 31.9019 41.0724C31.0464 41.2161 30.0971 41.9448 29.6737 42.5664C29.4781 42.8536 29.3962 43.1112 29.437 43.3114C29.5651 43.941 29.7809 44.0444 29.8439 44.0612C29.9082 44.0788 29.9736 44.0397 29.9905 43.9751C30.0075 43.9105 29.9693 43.8445 29.9053 43.8274H29.9055C29.9095 43.8274 29.7705 43.7451 29.6722 43.2628C29.6452 43.1304 29.7161 42.9317 29.8717 42.7034C30.2668 42.1235 31.149 41.4442 31.9416 41.3111C32.9709 41.1382 33.2422 41.9825 33.4488 42.939C33.4629 43.0043 33.5272 43.0457 33.5915 43.0315C33.6563 43.0173 33.6973 42.9529 33.6833 42.8877C33.5313 42.1847 33.2854 41.0462 32.2007 41.0462Z" fill="#E0390C"/>
<path d="M36.033 35.7024C36.0116 35.7024 35.99 35.7081 35.9705 35.7202C35.9139 35.755 35.8962 35.8295 35.9307 35.8865C36.0565 36.0936 36.3563 36.4966 36.7358 37.0066C37.6159 38.1895 38.946 39.9769 39.1218 40.727C39.137 40.792 39.2018 40.8327 39.2661 40.8169C39.3307 40.8015 39.3705 40.7364 39.3553 40.6714C39.168 39.8723 37.8732 38.1321 36.9278 36.8616C36.5521 36.3566 36.2552 35.9577 36.1355 35.7603C36.1129 35.723 36.0734 35.7024 36.033 35.7024Z" fill="#DD5758"/>
<path d="M31.4833 26.6454C31.2663 26.6454 31.0575 26.6852 30.8626 26.766C30.2204 27.0321 29.8003 27.7061 29.2155 27.2825C29.1617 27.2435 29.0866 27.2559 29.0479 27.31C29.0093 27.3642 29.0215 27.4398 29.0754 27.4788C29.7319 27.9551 30.0283 27.3731 30.9539 26.9894C31.5033 26.7619 32.1924 26.9179 32.8453 27.4172C34.107 28.3818 35.4268 30.8222 34.9937 34.525C34.986 34.5914 35.0331 34.6515 35.0988 34.6593C35.1648 34.6673 35.2242 34.6197 35.232 34.5533C35.4273 32.8839 35.2811 31.2884 34.8095 29.9395C34.4019 28.7739 33.7559 27.8097 32.9904 27.2244C32.4916 26.8431 31.9673 26.6454 31.4833 26.6454Z" fill="#DD5758"/>
</g>
<defs>
<clipPath id="clip0_199_777">
<rect width="60" height="60" fill="white"/>
</clipPath>
</defs>
</svg>
