<svg width="60" height="60" viewBox="0 0 60 60" fill="none" xmlns="http://www.w3.org/2000/svg">
<path d="M48.3077 38.3747C48.7808 38.3016 49.2647 38.2582 49.7425 38.3089C50.0972 38.3464 50.4599 38.4318 50.762 38.6309C51.0259 38.805 51.2212 39.0576 51.318 39.361C51.4314 39.7169 51.4057 40.1053 51.3314 40.4662C51.2021 41.094 50.9198 41.6855 50.5945 42.232C50.5174 42.3615 50.3158 42.2435 50.3933 42.1134C50.6775 41.6358 50.9219 41.1313 51.0629 40.5908C51.1117 40.4035 51.1478 40.2124 51.1583 40.0186C51.1673 39.854 51.1599 39.6986 51.1267 39.5488C51.094 39.4008 51.0531 39.294 50.9751 39.1692C50.9134 39.0701 50.8105 38.9576 50.7221 38.8894C50.4658 38.6915 50.1574 38.6012 49.8367 38.5556C49.3522 38.4866 48.8508 38.5273 48.3695 38.6016C48.3074 38.6112 48.2443 38.5857 48.2262 38.5194C48.2112 38.4636 48.2451 38.3843 48.3077 38.3747Z" fill="#DD5758"/>
<path d="M48.1089 37.9008C47.5736 38.9383 46.9982 39.9549 46.3761 40.9422C45.826 41.8153 45.2393 42.6652 44.6125 43.4843C44.0514 44.2173 43.4589 44.9261 42.8292 45.6002C42.2811 46.1868 41.7053 46.7477 41.0984 47.2722C40.5701 47.7287 40.0182 48.1589 39.4403 48.5498C39.3754 48.5936 39.3103 48.637 39.2447 48.6799C39.1185 48.7624 39.0015 48.5591 39.1271 48.4769C39.6905 48.1083 40.2288 47.7017 40.7442 47.2675C41.3457 46.7608 41.9169 46.2177 42.461 45.6491C43.0799 45.0021 43.6639 44.3215 44.2167 43.6164C44.8404 42.821 45.4233 41.993 45.9714 41.1429C46.5903 40.1829 47.1644 39.1936 47.6984 38.1832C47.7689 38.0499 47.8386 37.9162 47.9078 37.7821C47.9768 37.6478 48.1781 37.7665 48.1089 37.9008Z" fill="#DD5758"/>
<path d="M31.0458 37.9356C31.3127 39.1727 31.3599 40.4603 31.2152 41.7168C31.0886 42.8181 30.8271 43.9411 30.2944 44.9194C29.9215 45.6044 29.3428 46.3087 28.5254 46.4115C28.1363 46.4604 27.7479 46.3475 27.4104 46.1556C27.0094 45.9275 26.6745 45.571 26.5792 45.1052C26.478 44.6113 26.628 44.1074 26.8415 43.6647C27.137 43.0517 27.5726 42.5082 28.0303 42.0114C28.1704 41.8592 28.3148 41.7109 28.4621 41.5657C28.5695 41.4597 28.7344 41.6258 28.6269 41.7319C28.1184 42.2336 27.6332 42.7739 27.2595 43.3873C27.0053 43.8044 26.7775 44.2855 26.7791 44.7856C26.7804 45.1873 26.9649 45.5406 27.2842 45.7915C27.4536 45.9247 27.6524 46.0324 27.8481 46.1004C28.0195 46.16 28.1659 46.1881 28.3391 46.1884C28.5038 46.1886 28.6356 46.1652 28.7988 46.1071C28.9421 46.0561 29.0995 45.9674 29.2366 45.8652C29.369 45.7667 29.5115 45.6264 29.6284 45.4904C29.7622 45.3345 29.8793 45.1653 29.9862 44.9877C30.5205 44.1002 30.792 43.0556 30.9407 42.0365C31.1137 40.8503 31.1084 39.6239 30.9069 38.4417C30.8816 38.2933 30.8528 38.1454 30.8211 37.9981C30.7893 37.8506 31.0139 37.7876 31.0458 37.9356Z" fill="#DD5758"/>
<path d="M29.7781 32.939C30.1252 34.2473 30.4842 35.5527 30.8013 36.8688C30.8867 37.2233 30.9688 37.5788 31.0462 37.9352C31.0783 38.0826 30.8536 38.1456 30.8214 37.9977C30.5371 36.6886 30.1918 35.3938 29.8463 34.1C29.7485 33.7339 29.6505 33.3678 29.5533 33.0016C29.5146 32.8552 29.7393 32.7928 29.7781 32.939Z" fill="#DD5758"/>
<path d="M43.5682 51.0373C43.3547 51.3777 43.1549 51.7295 42.9979 52.1004C42.8745 52.392 42.7721 52.7049 42.7447 53.0224C42.7222 53.2824 42.7487 53.5506 42.8663 53.7864C42.9936 54.0413 43.2042 54.2352 43.4452 54.3796C44.1995 54.8319 45.1412 54.8212 45.9947 54.6797C47.0448 54.5055 48.0587 54.1407 49.0472 53.7524C50.0036 53.3768 50.9424 52.9543 51.9079 52.6025C52.2809 52.4666 52.6604 52.3387 53.0501 52.2609C53.3362 52.2038 53.646 52.1635 53.9329 52.2388C53.9928 52.2546 54.0508 52.2771 54.1065 52.3043C54.2416 52.37 54.1235 52.5728 53.9889 52.5073C53.9804 52.5032 53.9375 52.4855 53.9738 52.4998C53.961 52.4947 53.9483 52.4897 53.9352 52.4851C53.9061 52.4748 53.8764 52.4665 53.8464 52.4594C53.8197 52.4532 53.7928 52.4486 53.7658 52.4442C53.7387 52.4397 53.7936 52.4472 53.7662 52.4442C53.7584 52.4433 53.7507 52.4423 53.7429 52.4415C53.7244 52.4396 53.7058 52.4381 53.6871 52.4369C53.6186 52.4326 53.5498 52.4334 53.4813 52.4374C53.4443 52.4395 53.4073 52.4426 53.3704 52.4466C53.3513 52.4486 53.332 52.451 53.3129 52.4533C53.2802 52.4575 53.3379 52.4497 53.3049 52.4544C53.295 52.4558 53.2852 52.4572 53.2753 52.4587C52.8962 52.5163 52.5264 52.6335 52.1651 52.7595C51.2 53.0958 50.266 53.5183 49.317 53.8968C48.3096 54.2986 47.2796 54.6809 46.211 54.8792C45.3123 55.046 44.3259 55.0929 43.4861 54.6697C43.2366 54.5439 43.0001 54.3757 42.8258 54.1539C42.6507 53.9312 42.5484 53.6707 42.5154 53.3891C42.4372 52.7191 42.739 52.037 43.0479 51.4633C43.1478 51.2779 43.2551 51.0969 43.3668 50.9187C43.4469 50.7912 43.6486 50.9089 43.5682 51.0373Z" fill="#DD5758"/>
<path d="M45.3126 32.4538C45.8416 32.3572 46.384 32.3083 46.9211 32.3513C47.3894 32.3887 47.8631 32.4925 48.2759 32.7265C48.6595 32.9441 48.9582 33.2749 49.1235 33.687C49.3243 34.1876 49.3023 34.7531 49.2013 35.2739C49.0454 36.0779 48.6939 36.8414 48.3036 37.5542C48.24 37.6706 48.1745 37.7858 48.1079 37.9004C48.032 38.0308 47.8304 37.9126 47.9066 37.7818C48.3277 37.0585 48.7111 36.2934 48.9172 35.4766C49.0461 34.9661 49.1048 34.4153 48.9562 33.915C48.8436 33.5362 48.5994 33.2141 48.2752 33.001C47.92 32.7676 47.4892 32.6492 47.0751 32.6014C46.5777 32.544 46.0654 32.5702 45.5757 32.6464C45.5085 32.6568 45.4415 32.6682 45.3746 32.6805C45.3127 32.6917 45.2489 32.6634 45.2312 32.5983C45.2157 32.5414 45.2503 32.4652 45.3126 32.4538Z" fill="#DD5758"/>
<path d="M9.22124 7.22579C9.76208 6.65077 10.3801 6.13875 11.0568 5.73452C11.7224 5.337 12.4756 5.0281 13.2576 5.00224C13.6268 4.99001 14.0018 5.0469 14.3455 5.18572C14.5256 5.25848 14.6974 5.34875 14.8577 5.45936C14.9446 5.51942 15.0285 5.58443 15.1088 5.65331C15.1872 5.72066 15.2782 5.79259 15.3387 5.87734C15.5901 6.22973 15.7549 6.66617 15.8347 7.0905C15.917 7.52775 15.9119 7.97242 15.8471 8.41156C15.7008 9.4035 15.257 10.3394 14.7493 11.1914C14.6804 11.3071 14.6096 11.4216 14.5375 11.5352C14.457 11.6623 14.2552 11.5445 14.3363 11.4166C14.8606 10.59 15.3283 9.69935 15.5492 8.73691C15.7364 7.92058 15.7098 7.05241 15.317 6.29943C15.2675 6.20446 15.2163 6.10091 15.1507 6.01604C15.0919 5.93999 15.0086 5.87452 14.9358 5.81269C14.793 5.69115 14.6364 5.58619 14.4703 5.49968C14.1607 5.33817 13.8157 5.25213 13.468 5.23814C12.733 5.20864 12.0129 5.47064 11.3763 5.82174C10.7128 6.18777 10.1087 6.66299 9.57259 7.19969C9.50943 7.26293 9.44744 7.32711 9.38626 7.39211C9.28254 7.50201 9.11799 7.33557 9.22124 7.22579Z" fill="#DD5758"/>
<path d="M9.10543 17.8332C8.83671 18.1161 8.56961 18.4009 8.31475 18.6966C8.13529 18.9048 7.9578 19.1182 7.814 19.3537C7.73546 19.4823 7.53374 19.3642 7.61275 19.2351C7.76284 18.9894 7.94837 18.7652 8.13517 18.5476C8.39434 18.2456 8.66668 17.9554 8.94054 17.6672C9.0446 17.5576 9.20927 17.7241 9.10543 17.8332Z" fill="#DD5758"/>
<path d="M29.4573 18.5905C29.456 19.2502 29.4021 19.9104 29.346 20.5673C29.2744 21.4067 29.1878 22.2446 29.1013 23.0825C29.0512 23.5678 29.0007 24.0531 28.9523 24.5387C28.946 24.6018 28.9032 24.6562 28.8357 24.6562C28.7776 24.6562 28.7128 24.6023 28.7192 24.5387C28.8051 23.6799 28.8968 22.8219 28.9823 21.9631C29.0603 21.1809 29.1356 20.3979 29.1851 19.6133C29.2067 19.2729 29.2237 18.9318 29.2244 18.5906C29.2246 18.4393 29.4577 18.439 29.4573 18.5905Z" fill="#DD5758"/>
<path d="M27.7775 22.0767C25.5766 22.0238 25.5138 24.0241 26.0377 25.5041C26.5618 26.9839 33.0807 30.4904 33.0807 30.4904C33.0807 30.4904 32.6616 33.4502 31.5087 33.4502C30.3558 33.4502 23.701 30.3318 23.701 30.3318C23.701 30.3318 22.3382 30.9333 20.715 30.142C19.4212 29.5112 12.4818 20.5031 11.3344 19.9724C10.2462 19.4691 7.85351 16.1421 6.09431 14.687C4.51247 13.3788 10.6008 7.39314 11.2938 8.03939C11.9869 8.68563 17.0984 14.8456 18.0941 15.0041C19.0896 15.1627 23.5438 16.167 24.6966 16.8011L27.7775 22.0767Z" fill="white"/>
<path d="M25.8909 24.5964C25.8275 24.5964 25.7755 24.6478 25.7743 24.7119C25.7446 26.4608 26.463 27.3328 27.0922 27.8971C27.1403 27.9401 27.214 27.9359 27.2568 27.8873C27.2995 27.8388 27.2952 27.7645 27.2472 27.7214C26.6552 27.1905 25.9794 26.3693 26.0075 24.7159C26.0086 24.651 25.9573 24.5976 25.893 24.5964C25.8923 24.5964 25.8916 24.5964 25.8909 24.5964Z" fill="#E0390C"/>
<path d="M21.798 28.2186C21.7752 28.2186 21.7522 28.2253 21.732 28.2394C21.679 28.2762 21.6657 28.3494 21.7022 28.4029C21.7402 28.4585 22.6443 29.7721 23.6387 30.4299C23.6924 30.4656 23.7646 30.4504 23.8001 30.3961C23.8354 30.3418 23.8203 30.269 23.7665 30.2333C22.81 29.6006 21.9031 28.2828 21.8941 28.2695C21.8715 28.2364 21.8351 28.2186 21.798 28.2186Z" fill="#E0390C"/>
<path d="M45.71 52.3192C44.9449 51.7912 39.3641 48.6723 36.773 46.8753C34.1819 45.0783 30.8685 44.5149 28.9063 42.119C28.2806 41.3551 26.2389 38.3325 25.5144 37.2696C25.1977 36.8048 25.584 35.5854 25.5828 34.5788C25.5813 33.2832 25.0351 32.5667 26.0116 32.324C26.6099 32.1752 27.9177 32.9149 28.336 34.01C29.0335 35.8368 28.7946 36.3892 28.8276 36.6217C28.8606 36.8542 31.9358 38.8308 32.5616 38.2329C33.1873 37.635 28.2994 27.6137 26.2891 26.0472C26.3377 24.9468 27.655 24.0168 29.1039 24.7143C28.844 23.7839 30.6619 23.1628 32.0779 24.1925C32.0779 24.1925 31.6396 22.7546 33.0556 22.821C34.4716 22.8874 35.5254 23.3857 37.7646 25.4783C37.7646 25.4783 40.0039 24.7808 41.354 25.3122C42.7042 25.8436 43.696 29.1008 43.8897 29.5306C45.2069 32.4535 48.6975 39.1631 49.2244 40.2259C49.7512 41.2888 52.0894 44.3778 52.9126 46.0717C53.7358 47.7656 46.9179 53.1527 45.71 52.3192Z" fill="#FF7548"/>
<path d="M25.3889 32.4497C25.3269 32.4497 25.2754 32.4989 25.2726 32.562C25.2698 32.6268 25.3197 32.6817 25.3839 32.6846C25.3935 32.6851 26.3556 32.7375 26.5493 33.4797C26.7041 34.0726 26.6381 34.954 26.2618 35.3444C26.0617 35.5521 25.785 35.616 25.4392 35.5347C25.3765 35.5196 25.3138 35.5591 25.2993 35.6225C25.2847 35.6857 25.3236 35.7488 25.3863 35.7636C25.8108 35.8638 26.1715 35.7753 26.4289 35.5083C26.9396 34.9786 26.9121 33.9462 26.7748 33.42C26.5371 32.5091 25.4406 32.4519 25.394 32.4499C25.3921 32.4497 25.3905 32.4497 25.3889 32.4497Z" fill="#E0390C"/>
<path d="M29.104 24.5964C29.0626 24.5964 29.0225 24.6188 29.0014 24.6579C28.9708 24.715 28.9917 24.7864 29.0484 24.8173C30.4285 25.5716 32.6698 28.5969 33.7469 30.0508C33.969 30.3506 34.1445 30.5875 34.2591 30.7329C34.299 30.7838 34.3725 30.7922 34.4228 30.7518C34.4733 30.7114 34.4815 30.6374 34.4416 30.5866C34.3292 30.4441 34.1547 30.2084 33.9337 29.9101C32.8467 28.4428 30.5846 25.3895 29.1595 24.6105C29.1417 24.601 29.1227 24.5964 29.104 24.5964Z" fill="#E0390C"/>
<path d="M32.0776 24.0746C32.0395 24.0746 32.0022 24.0934 31.9798 24.128C31.9447 24.1825 31.96 24.2553 32.0139 24.2907C33.563 25.3072 35.5891 27.2645 36.8312 28.9449C36.8696 28.9969 36.9428 29.0077 36.9943 28.9689C37.0459 28.9301 37.0565 28.8564 37.018 28.8045C35.7614 27.1047 33.7103 25.1235 32.141 24.0937C32.1214 24.0807 32.0994 24.0746 32.0776 24.0746Z" fill="#E0390C"/>
<path d="M37.765 25.3601C37.7341 25.3601 37.7033 25.3723 37.6804 25.3969C37.6361 25.444 37.6381 25.5184 37.6849 25.5631C38.7546 26.5851 39.9962 28.0543 40.0086 28.069C40.0503 28.1183 40.1239 28.1244 40.1729 28.0824C40.222 28.0403 40.2279 27.9661 40.1862 27.9166C40.1737 27.9018 38.9242 26.4233 37.8453 25.3923C37.8226 25.3708 37.7938 25.3601 37.765 25.3601Z" fill="#E0390C"/>
<path d="M34.8312 32.0628C34.7738 32.0628 34.7237 32.1057 34.7159 32.1648C34.7074 32.2291 34.7522 32.2884 34.816 32.2969C35.3009 32.3622 35.8298 33.3044 35.9929 33.6621C36.0198 33.721 36.089 33.7467 36.1474 33.7198C36.2058 33.6928 36.2315 33.6229 36.2046 33.5639C36.1785 33.5066 35.5578 32.1595 34.8469 32.0639C34.8415 32.0632 34.8364 32.0628 34.8312 32.0628Z" fill="#E0390C"/>
<path d="M38.674 30.4496C38.6166 30.4496 38.5665 30.4925 38.5587 30.5517C38.5501 30.616 38.5949 30.6752 38.6588 30.6837C39.1437 30.7489 39.6726 31.6911 39.8356 32.0488C39.8626 32.1077 39.9318 32.1334 39.9902 32.1065C40.0485 32.0795 40.0743 32.0097 40.0474 31.9507C40.0213 31.8933 39.4006 30.5463 38.6896 30.4506C38.6844 30.45 38.6791 30.4496 38.674 30.4496Z" fill="#E0390C"/>
<path d="M39.2436 48.6799C38.5617 49.125 37.8415 49.5173 37.0798 49.8051C36.5229 50.0155 35.9331 50.174 35.3359 50.1951C34.9189 50.2098 34.4688 50.154 34.1091 49.9246C33.7876 49.7194 33.5927 49.3916 33.5456 49.0131C33.4873 48.5447 33.6429 48.0686 33.839 47.6505C34.1427 47.003 34.5893 46.4248 35.0624 45.8951C35.7538 45.1211 36.5384 44.4336 37.3533 43.7956C37.8732 43.3887 38.4076 43.0011 38.9529 42.6298C39.5729 42.2077 40.2038 41.7985 40.8538 41.425C42.0684 40.727 43.3154 40.0814 44.6035 39.5324C45.6002 39.1076 46.6255 38.7308 47.6836 38.4943C47.8903 38.4481 48.0982 38.4079 48.3073 38.3752C48.3694 38.3655 48.4327 38.3912 48.4507 38.4574C48.4658 38.5131 48.4318 38.5922 48.3693 38.602C47.3999 38.7538 46.4551 39.0552 45.5396 39.405C44.3236 39.8695 43.1471 40.4374 42.0007 41.0548C41.3347 41.4136 40.679 41.7891 40.0402 42.1952C39.4519 42.5693 38.8731 42.9587 38.3082 43.368C37.4096 44.019 36.5416 44.7203 35.7541 45.5057C35.2026 46.0559 34.6854 46.6448 34.2842 47.3141C34.2066 47.4435 34.1339 47.5759 34.0678 47.7116C34.0375 47.7739 34.0087 47.8371 33.9813 47.9008C33.9683 47.9311 33.9821 47.8978 33.9699 47.9281C33.9637 47.9434 33.9575 47.9586 33.9516 47.9739C33.9398 48.0038 33.9285 48.0339 33.9176 48.0641C33.8769 48.1766 33.8422 48.2914 33.8157 48.4082C33.8036 48.4617 33.7932 48.5155 33.7851 48.5697C33.7839 48.5771 33.7778 48.6231 33.7826 48.5856C33.781 48.5985 33.7795 48.6113 33.778 48.6242C33.7752 48.6495 33.7729 48.6749 33.7711 48.7003C33.7644 48.7957 33.7663 48.8908 33.7756 48.986C33.7766 48.9957 33.7825 49.0354 33.7764 48.9951C33.778 49.005 33.7794 49.0149 33.781 49.0248C33.7847 49.0475 33.7889 49.0702 33.7938 49.0926C33.8029 49.1344 33.8141 49.1755 33.8275 49.2159C33.8337 49.2347 33.8407 49.2532 33.8476 49.2718C33.8537 49.2878 33.8591 49.2985 33.8488 49.2752C33.8538 49.2865 33.8587 49.2978 33.8638 49.3088C33.881 49.3456 33.9003 49.3813 33.9215 49.4158C33.9316 49.432 33.942 49.448 33.953 49.4637C33.9581 49.4711 33.9636 49.4783 33.9687 49.4858C33.985 49.5097 33.9516 49.4658 33.9762 49.4956C34.0019 49.5267 34.0283 49.5571 34.0569 49.5856C34.086 49.6145 34.117 49.641 34.1485 49.6671C34.1611 49.6775 34.1253 49.6506 34.152 49.6695C34.1596 49.6749 34.1671 49.6807 34.1748 49.6861C34.1936 49.6996 34.2129 49.7124 34.2324 49.7249C34.269 49.7479 34.3068 49.7691 34.3455 49.7885C34.3633 49.7974 34.3815 49.8058 34.3997 49.8142C34.4057 49.8171 34.412 49.8196 34.4182 49.8225C34.4167 49.8218 34.3912 49.8113 34.4091 49.8186C34.4218 49.8238 34.4344 49.8289 34.4472 49.8339C34.5368 49.8685 34.6295 49.895 34.7235 49.9149C34.774 49.9255 34.8247 49.9341 34.8757 49.9414C34.8468 49.9373 34.8757 49.9414 34.8882 49.9428C34.9002 49.9442 34.9122 49.9456 34.9242 49.9469C34.9527 49.95 34.9814 49.9525 35.0101 49.9546C35.1263 49.9629 35.2428 49.9639 35.3592 49.9589C35.4217 49.9563 35.484 49.952 35.5464 49.9462C35.577 49.9434 35.6075 49.9402 35.6381 49.9367C35.6544 49.9348 35.6707 49.9328 35.687 49.9307C35.6935 49.9299 35.7002 49.9291 35.7067 49.9281C35.7304 49.9251 35.6896 49.9306 35.7205 49.9263C36.0091 49.8845 36.2935 49.8168 36.5723 49.7311C37.2796 49.5138 37.9407 49.1924 38.5816 48.8152C38.7659 48.7067 38.9474 48.5937 39.1265 48.4767C39.2523 48.3946 39.3693 48.5979 39.2436 48.6799Z" fill="#DD5758"/>
<path d="M18.1279 27.4754C17.7293 28.2598 17.0825 29.221 16.1012 29.2187C15.6853 29.2178 15.2338 29.0411 14.9349 28.7475C14.639 28.4568 14.5028 28.0514 14.46 27.6453C14.4085 27.1558 14.4895 26.6529 14.6197 26.1817C14.7753 25.6187 15.0122 25.0771 15.2977 24.5695C15.7804 23.7114 16.3191 22.8792 16.881 22.0722C17.4645 21.2341 18.089 20.4234 18.7681 19.6617C19.4407 18.9072 20.1685 18.1994 20.9637 17.5767C21.7448 16.9652 22.5888 16.4329 23.4988 16.0388C23.9499 15.8435 24.414 15.68 24.8898 15.5576C25.3802 15.4316 25.8901 15.3293 26.3973 15.3298C27.2011 15.3305 28.0625 15.4982 28.6548 16.0875C29.1648 16.5948 29.3683 17.3131 29.4321 18.0142C29.4496 18.2056 29.4565 18.3977 29.4565 18.5897C29.4565 18.741 29.2234 18.7412 29.2234 18.5897C29.2234 17.9061 29.1383 17.1813 28.7668 16.5979C28.386 15.9997 27.7277 15.6999 27.0385 15.6051C26.8004 15.5723 26.5588 15.5624 26.3187 15.5654C26.0714 15.5684 25.8291 15.6032 25.5858 15.6465C25.1205 15.7293 24.6621 15.8512 24.2158 16.0078C23.3172 16.323 22.4726 16.7817 21.6912 17.327C20.8935 17.8838 20.1621 18.5331 19.4851 19.2327C18.7999 19.9408 18.169 20.7019 17.582 21.4943C17.0099 22.2666 16.4777 23.0686 15.9751 23.8884C15.7058 24.3278 15.4346 24.7684 15.2173 25.2369C14.9918 25.7229 14.8153 26.2381 14.7276 26.7683C14.6581 27.1878 14.6451 27.6364 14.7775 28.0451C14.8952 28.4088 15.138 28.6728 15.4795 28.834C15.8311 29 16.2283 29.0376 16.5906 28.8834C16.9801 28.7177 17.2842 28.3836 17.5229 28.0414C17.6745 27.824 17.8063 27.5931 17.9265 27.3568C17.9952 27.2221 18.1963 27.3409 18.1279 27.4754Z" fill="#DD5758"/>
<path d="M7.8131 19.3539C7.62373 19.6674 7.45243 20.0019 7.37377 20.363C7.3465 20.488 7.33344 20.6002 7.3416 20.7352C7.34253 20.7502 7.34393 20.7651 7.34521 20.78C7.34568 20.7855 7.34638 20.7909 7.34708 20.7965C7.34929 20.8155 7.3444 20.7788 7.3472 20.7976C7.35139 20.8255 7.35675 20.8531 7.36339 20.8805C7.36934 20.9052 7.37633 20.9296 7.38449 20.9537C7.38822 20.9647 7.39218 20.9756 7.39626 20.9864C7.39754 20.9898 7.40546 21.0091 7.39952 20.9951C7.39323 20.9803 7.40395 21.005 7.40535 21.0078C7.42725 21.0521 7.45114 21.0942 7.47969 21.1346C7.49636 21.1583 7.47387 21.1285 7.48715 21.1443C7.49519 21.1538 7.50312 21.1634 7.51139 21.1726C7.52806 21.1912 7.54565 21.2089 7.56407 21.2257C7.57222 21.2331 7.5805 21.2403 7.58877 21.2475C7.59355 21.2516 7.59844 21.2555 7.60334 21.2595C7.61674 21.2703 7.58842 21.2482 7.60217 21.2585C7.62268 21.2738 7.64378 21.2883 7.66557 21.3018C7.68631 21.3147 7.70764 21.3268 7.72943 21.338C7.7398 21.3434 7.75017 21.3485 7.76066 21.3535C7.7659 21.356 7.80599 21.3735 7.78362 21.3642C7.88687 21.407 7.99641 21.434 8.10677 21.4499C8.08602 21.447 8.12191 21.4518 8.12751 21.4524C8.14312 21.4541 8.15874 21.4558 8.17436 21.4571C8.2064 21.4599 8.23845 21.4619 8.27061 21.4631C8.33564 21.4655 8.4009 21.4651 8.46592 21.4619C9.08251 21.4326 9.70666 21.1832 10.243 20.8644C10.5606 20.6755 10.8579 20.4536 11.1288 20.2012C11.3528 19.9926 11.5608 19.7657 11.7658 19.5384C12.306 18.9394 12.8174 18.3136 13.3134 17.6771C13.9018 16.9222 14.4665 16.1478 15.0001 15.3524C15.2623 14.9614 15.5168 14.5652 15.7598 14.1617C16.0087 13.7483 16.2282 13.3165 16.49 12.9112C16.7247 12.548 16.9902 12.1952 17.3117 11.9052C17.5422 11.6974 17.8098 11.5113 18.1126 11.4321C18.3649 11.366 18.6267 11.3868 18.8614 11.5026C19.1153 11.6279 19.31 11.8554 19.4546 12.0953C19.6539 12.4259 19.7767 12.8031 19.8637 13.1781C19.9712 13.6422 20.0212 14.1179 20.0551 14.5926C20.0742 14.8607 20.0878 15.129 20.098 15.3976C20.1038 15.5489 19.8708 15.5487 19.865 15.3976C19.8291 14.4581 19.7914 13.466 19.4369 12.5834C19.3246 12.3039 19.1711 12.032 18.9432 11.8363C18.7722 11.6895 18.565 11.6146 18.3374 11.6305C18.2403 11.6373 18.0949 11.6763 17.9966 11.7204C17.8617 11.7808 17.7348 11.861 17.6182 11.9517C17.3004 12.1989 17.039 12.5203 16.8108 12.8507C16.5332 13.2528 16.3114 13.6886 16.0633 14.1089C15.8238 14.5146 15.5718 14.9128 15.3117 15.3055C14.7763 16.1139 14.2068 16.8995 13.615 17.6669C13.1102 18.3216 12.5889 18.9647 12.0399 19.5825C11.5822 20.0976 11.1072 20.5898 10.5259 20.9649C9.96572 21.3265 9.32839 21.5988 8.66473 21.68C8.21421 21.7352 7.64809 21.6961 7.33111 21.3212C6.95925 20.8813 7.11797 20.2545 7.3261 19.7782C7.40814 19.5906 7.50603 19.4104 7.61173 19.2354C7.68969 19.1062 7.89141 19.2242 7.8131 19.3539Z" fill="#DD5758"/>
<path d="M28.9519 24.5373C28.8892 25.1656 28.8284 25.7944 28.782 26.4242C28.7485 26.8791 28.7157 27.3376 28.7279 27.7941C28.7401 28.2416 28.8035 28.6871 28.88 29.1274C28.9772 29.6863 29.0999 30.2405 29.231 30.7923C29.4017 31.5105 29.5883 32.2248 29.7776 32.9381C29.8164 33.0845 29.5916 33.1469 29.5528 33.0007C29.2339 31.7982 28.9124 30.592 28.687 29.3674C28.6006 28.8976 28.5267 28.4223 28.5011 27.9446C28.4776 27.5089 28.5048 27.0704 28.534 26.6355C28.5811 25.935 28.6491 25.2357 28.7189 24.5371C28.7252 24.474 28.7679 24.4196 28.8354 24.4196C28.8935 24.4197 28.9583 24.4738 28.9519 24.5373Z" fill="#DD5758"/>
<path d="M28.4618 41.5655C29.2862 40.7546 30.1874 40.0244 31.1143 39.3369C32.1775 38.5484 33.2831 37.8183 34.4138 37.1325C35.5953 36.416 36.8062 35.7479 38.0425 35.1323C39.2319 34.5401 40.4459 33.995 41.6873 33.5228C42.7506 33.1183 43.838 32.7619 44.9513 32.5262C45.0715 32.5006 45.1922 32.4768 45.313 32.4546C45.4596 32.4275 45.5225 32.654 45.375 32.6813C44.2849 32.8823 43.2195 33.2115 42.1782 33.59C40.96 34.0329 39.7697 34.5522 38.603 35.1179C37.3651 35.718 36.1527 36.372 34.9686 37.0736C33.8224 37.7528 32.7012 38.4766 31.6196 39.2566C30.6736 39.939 29.7538 40.6642 28.9035 41.4654C28.8102 41.5532 28.7181 41.642 28.6267 41.7319C28.5191 41.8374 28.3541 41.6713 28.4618 41.5655Z" fill="#DD5758"/>
<path d="M27.7778 22.0761C30.7709 21.9447 31.826 23.5466 33.9767 23.5172C35.4061 23.4977 36.2505 22.2059 35.9001 21.8382C35.1331 21.0336 32.8866 19.5576 30.4414 18.9009C28.201 18.2992 25.7021 17.4251 24.6783 16.8004C24.6783 16.8004 23.202 21.3208 27.7778 22.0761Z" fill="white"/>
<path d="M33.273 20.3401C32.7711 21.2126 32.725 21.5069 33.1704 21.8477C33.6157 22.1884 34.7529 22.9267 35.0755 22.8183C35.3979 22.71 35.861 22.0731 35.9004 21.8386" stroke="#E0390C" stroke-width="0.235085" stroke-miterlimit="10" stroke-linecap="round" stroke-linejoin="round"/>
</svg>
