<svg width="24" height="24" viewBox="0 0 24 24" fill="none" xmlns="http://www.w3.org/2000/svg">
<path d="M19.9167 3.5H4.08333C3.531 3.50067 3.00148 3.72477 2.61092 4.12314C2.22037 4.52151 2.00066 5.06162 2 5.625V18.375C2 19.5463 2.935 20.5 4.08333 20.5H19.9167C21.065 20.5 22 19.5463 22 18.375V5.625C22 4.4537 21.065 3.5 19.9167 3.5ZM7.41667 5.2C7.52717 5.2 7.63315 5.24478 7.71129 5.32448C7.78943 5.40418 7.83333 5.51228 7.83333 5.625C7.83333 5.73772 7.78943 5.84582 7.71129 5.92552C7.63315 6.00522 7.52717 6.05 7.41667 6.05C7.30616 6.05 7.20018 6.00522 7.12204 5.92552C7.0439 5.84582 7 5.73772 7 5.625C7 5.51228 7.0439 5.40418 7.12204 5.32448C7.20018 5.24478 7.30616 5.2 7.41667 5.2ZM5.75 5.2C5.86051 5.2 5.96649 5.24478 6.04463 5.32448C6.12277 5.40418 6.16667 5.51228 6.16667 5.625C6.16667 5.73772 6.12277 5.84582 6.04463 5.92552C5.96649 6.00522 5.86051 6.05 5.75 6.05C5.63949 6.05 5.53351 6.00522 5.45537 5.92552C5.37723 5.84582 5.33333 5.73772 5.33333 5.625C5.33333 5.51228 5.37723 5.40418 5.45537 5.32448C5.53351 5.24478 5.63949 5.2 5.75 5.2ZM4.08333 5.2C4.19384 5.2 4.29982 5.24478 4.37796 5.32448C4.4561 5.40418 4.5 5.51228 4.5 5.625C4.5 5.73772 4.4561 5.84582 4.37796 5.92552C4.29982 6.00522 4.19384 6.05 4.08333 6.05C3.97283 6.05 3.86685 6.00522 3.78871 5.92552C3.71057 5.84582 3.66667 5.73772 3.66667 5.625C3.66667 5.51228 3.71057 5.40418 3.78871 5.32448C3.86685 5.24478 3.97283 5.2 4.08333 5.2ZM21.1667 18.375C21.1667 19.078 20.6058 19.65 19.9167 19.65H4.08333C3.39417 19.65 2.83333 19.078 2.83333 18.375V7.75H21.1667V18.375ZM10.6833 14.1454C11.0833 14.4251 11.5417 14.5645 12 14.5645C12.4583 14.5645 12.9175 14.4251 13.3175 14.1454L20.1517 9.37605C20.2385 9.31071 20.2971 9.21354 20.3152 9.10501C20.3332 8.99647 20.3092 8.88503 20.2483 8.79415C20.1874 8.70327 20.0943 8.64005 19.9886 8.61778C19.8829 8.59552 19.7729 8.61596 19.6817 8.6748L12.8483 13.4442C12.5992 13.6196 12.3036 13.7136 12.0008 13.7136C11.6981 13.7136 11.4025 13.6196 11.1533 13.4442L4.32 8.6748C4.22878 8.61596 4.11874 8.59552 4.01304 8.61778C3.90735 8.64005 3.81424 8.70327 3.75333 8.79415C3.69242 8.88503 3.66846 8.99647 3.68649 9.10501C3.70452 9.21354 3.76314 9.31071 3.85 9.37605L10.6833 14.1454ZM4.0825 18.8C4.18 18.8002 4.27443 18.7653 4.34917 18.7014L9.34917 14.4514C9.43415 14.3793 9.48755 14.2756 9.49763 14.1633C9.50771 14.051 9.47364 13.9393 9.40292 13.8526C9.33219 13.7659 9.23061 13.7114 9.12051 13.7011C9.01041 13.6909 8.90081 13.7256 8.81583 13.7978L3.81583 18.0478C3.74977 18.1036 3.70221 18.1789 3.67967 18.2633C3.65712 18.3477 3.66067 18.4372 3.68985 18.5195C3.71902 18.6018 3.77239 18.6729 3.84267 18.7231C3.91295 18.7733 3.9967 18.8002 4.0825 18.8ZM15.1825 13.7986C15.0975 13.7265 14.9879 13.6917 14.8778 13.702C14.7677 13.7123 14.6661 13.7667 14.5954 13.8534C14.5247 13.9401 14.4906 14.0519 14.5007 14.1642C14.5108 14.2765 14.5642 14.3801 14.6492 14.4523L19.6492 18.7023C19.6911 18.7379 19.7396 18.7648 19.7917 18.7814C19.8439 18.798 19.8987 18.8039 19.9531 18.7989C20.0075 18.7938 20.0604 18.7779 20.1088 18.752C20.1572 18.7261 20.2 18.6907 20.235 18.6478C20.3056 18.5611 20.3397 18.4495 20.3299 18.3372C20.3201 18.2249 20.2671 18.1212 20.1825 18.0486L15.1825 13.7986Z" fill="#FE572A"/>
</svg>
