<svg width="50" height="50" viewBox="0 0 50 50" fill="none" xmlns="http://www.w3.org/2000/svg">
<path d="M34.0619 45.0332C31.8387 45.0332 17.9875 45.0332 15.8499 45.0332C15.2513 45.0332 14.7383 45.5278 14.7383 46.1049C14.7383 46.6819 15.2513 47.1765 15.8499 47.1765H34.0619C34.6605 47.1765 35.1735 46.6819 35.1735 46.1049C35.1735 45.5278 34.6605 45.0332 34.0619 45.0332Z" fill="#FE572A"/>
<path d="M34.6611 6.12265L31.2408 2.8252H15.4238V27.0615H34.662L34.6611 6.12265ZM23.9736 7.44164H27.1374C27.3939 7.44164 27.6504 7.68895 27.6504 7.93626C27.6504 8.18357 27.3939 8.43088 27.1374 8.43088H23.889C23.6325 8.43088 23.3759 8.18357 23.3759 7.93626C23.3751 7.68895 23.6316 7.44164 23.9736 7.44164ZM22.178 21.7032L19.5273 24.2587C19.4418 24.3411 19.2708 24.4236 19.1853 24.4236C19.0143 24.4236 18.9288 24.3411 18.8432 24.2587L17.7317 23.187C17.5606 23.0221 17.5606 22.6924 17.7317 22.4451C17.9027 22.1978 18.2439 22.2802 18.5012 22.4451L19.2708 23.187L21.5795 20.9612C21.7505 20.7963 22.0925 20.7963 22.349 20.9612C22.4345 21.2085 22.4345 21.5383 22.178 21.7032ZM22.178 17.0867L19.5273 19.6422C19.3563 19.8071 19.0143 19.8071 18.7577 19.6422L17.6462 18.5706C17.4751 18.4057 17.4751 18.0759 17.6462 17.8286C17.8172 17.5813 18.1592 17.6638 18.4157 17.8286L19.1853 18.5706L21.4939 16.3448C21.665 16.1799 22.007 16.1799 22.2635 16.3448C22.4345 16.5921 22.4345 16.9218 22.178 17.0867ZM22.178 12.4703L19.5273 15.0258C19.3563 15.1907 19.0143 15.1907 18.7577 15.0258L17.6462 13.9541C17.4751 13.7892 17.4751 13.4595 17.6462 13.2122C17.8172 13.0473 18.1592 13.0473 18.4157 13.2122L19.1853 13.9541L21.4939 11.7283C21.665 11.5635 22.007 11.5635 22.2635 11.7283C22.4345 11.9756 22.4345 12.3054 22.178 12.4703ZM22.178 7.85382L19.5273 10.4094C19.3563 10.5742 19.0143 10.5742 18.7577 10.4094L17.6462 9.33768C17.4751 9.17281 17.4751 8.84306 17.6462 8.59575C17.8172 8.43088 18.1592 8.43088 18.4157 8.59575L19.1853 9.33768L21.4939 7.1119C21.665 6.94702 22.007 6.94702 22.2635 7.1119C22.4345 7.35921 22.4345 7.68895 22.178 7.85382ZM30.8988 24.4236H23.9736C23.7171 24.4236 23.4606 24.1762 23.4606 23.9289C23.4606 23.6816 23.7171 23.4343 23.9736 23.4343H30.8997C31.1562 23.4343 31.4127 23.6816 31.4127 23.9289C31.4119 24.1762 31.1562 24.4236 30.8988 24.4236ZM23.3751 21.868C23.3751 21.6207 23.6316 21.3734 23.8881 21.3734H27.1365C27.3931 21.3734 27.6496 21.6207 27.6496 21.868C27.6496 22.1153 27.3931 22.3626 27.1365 22.3626H23.8881C23.6316 22.3626 23.3751 22.1153 23.3751 21.868ZM30.8988 19.8071H23.9736C23.7171 19.8071 23.4606 19.5598 23.4606 19.3125C23.4606 19.0652 23.7171 18.8179 23.9736 18.8179H30.8997C31.1562 18.8179 31.4127 19.0652 31.4127 19.3125C31.4119 19.5598 31.1562 19.8071 30.8988 19.8071ZM23.3751 17.2516C23.3751 17.0043 23.6316 16.757 23.8881 16.757H27.1365C27.3931 16.757 27.6496 17.0043 27.6496 17.2516C27.6496 17.4989 27.3931 17.7462 27.1365 17.7462H23.8881C23.6316 17.7462 23.3751 17.4989 23.3751 17.2516ZM30.8988 15.1907H23.9736C23.7171 15.1907 23.4606 14.9434 23.4606 14.696C23.4606 14.4487 23.7171 14.2014 23.9736 14.2014H30.8997C31.1562 14.2014 31.4127 14.4487 31.4127 14.696C31.4127 14.9434 31.1562 15.1907 30.8988 15.1907ZM23.3751 12.6351C23.3751 12.3878 23.6316 12.1405 23.8881 12.1405H27.1365C27.3931 12.1405 27.6496 12.3878 27.6496 12.6351C27.6496 12.8824 27.3931 13.1298 27.1365 13.1298H23.8881C23.6316 13.1298 23.3751 12.8824 23.3751 12.6351ZM30.8988 10.5742H23.9736C23.7171 10.5742 23.4606 10.3269 23.4606 10.0796C23.4606 9.8323 23.7171 9.58499 23.9736 9.58499H30.8997C31.1562 9.58499 31.4127 9.8323 31.4127 10.0796C31.4119 10.3269 31.1562 10.5742 30.8988 10.5742Z" fill="#FE572A"/>
<path d="M14.3119 11.0693H5.24902V33.7394H44.836V11.0693H35.6877V27.5566C35.6877 27.8039 35.4311 28.0512 35.1746 28.0512H14.8249C14.5684 28.0512 14.3119 27.8039 14.3119 27.5566V11.0693Z" fill="#FE572A"/>
<path d="M45.776 7.93652H35.687V9.99744H45.3484C45.605 9.99744 45.8615 10.2447 45.8615 10.4921V34.2338C45.8615 34.4811 45.605 34.7284 45.3484 34.7284H4.73621C4.47969 34.7284 4.22317 34.4811 4.22317 34.2338V10.4921C4.22317 10.2447 4.47969 9.99744 4.73621 9.99744H14.3121V7.93652H4.22317C3.02608 7.93652 2 8.92576 2 10.0799V37.7785C2 38.9326 3.02608 39.9219 4.22317 39.9219C6.01881 39.9219 44.5797 39.9219 45.7768 39.9219C46.9739 39.9219 48 38.9326 48 37.7785V10.0799C47.9992 8.92576 46.9731 7.93652 45.776 7.93652ZM24.9996 38.3556C24.401 38.3556 23.888 37.861 23.888 37.2839C23.888 36.7069 24.401 36.2122 24.9996 36.2122C25.5981 36.2122 26.1112 36.7069 26.1112 37.2839C26.1112 37.861 25.5981 38.3556 24.9996 38.3556Z" fill="#FE572A"/>
<path d="M27.7347 40.9121H22.3486V44.0447H27.7347V40.9121Z" fill="#FE572A"/>
</svg>
