<svg width="50" height="50" viewBox="0 0 50 50" fill="none" xmlns="http://www.w3.org/2000/svg">
<path d="M45.4458 17.4471C42.409 8.90392 34.2843 3.05859 24.9988 3.05859C15.7133 3.05859 7.58778 8.90392 4.55273 17.4471C16.0705 6.65572 33.928 6.65572 45.4458 17.4471Z" fill="#FE572A"/>
<path d="M24.9985 19.334C21.9626 19.334 19.374 21.852 19.374 24.9995C19.374 26.9779 20.3562 28.6865 21.8742 29.6757C21.6956 29.316 21.6063 28.8664 21.6063 28.3268C21.6063 26.4383 23.1243 24.9095 24.9985 24.9095C26.8737 24.9095 28.3916 26.4383 28.3916 28.3268C28.3916 28.7764 28.3023 29.2261 28.1238 29.6757C29.6417 28.6865 30.6239 26.9779 30.6239 24.9995C30.6231 21.852 28.0345 19.334 24.9985 19.334Z" fill="#FE572A"/>
<path d="M4.55273 32.4629C7.67796 41.096 15.8026 46.9413 24.9988 46.9413C34.195 46.9413 42.409 41.0061 45.4458 32.4629C33.928 43.2543 16.0705 43.1643 4.55273 32.4629Z" fill="#FE572A"/>
<path d="M24.9989 26.0791C23.7488 26.0791 22.7666 27.0683 22.7666 28.3273C22.7666 29.5863 23.7488 30.5755 24.9989 30.5755C26.249 30.5755 27.2312 29.5863 27.2312 28.3273C27.2312 27.0683 26.249 26.0791 24.9989 26.0791Z" fill="#FE572A"/>
<path d="M46.339 19.8746C46.2489 19.8746 46.2489 19.7846 46.1605 19.6947C33.3033 5.66594 10.0891 7.64436 0 24.9105C5.26735 33.8134 14.4644 39.389 25 39.389C35.2677 39.389 44.6434 34.0832 50 24.9105C48.9276 23.112 47.6775 21.4034 46.339 19.8746ZM24.9991 36.1516C18.8389 36.1516 13.8385 31.1156 13.8385 24.9105C13.8385 18.7055 18.8389 13.6695 24.9991 13.6695C31.1603 13.6695 36.1597 18.7055 36.1597 24.9105C36.1597 31.1156 31.1603 36.1516 24.9991 36.1516Z" fill="#FE572A"/>
<path d="M24.9993 14.8379C19.4632 14.8379 14.9102 19.3343 14.9102 24.9998C14.9102 30.5753 19.3747 35.1616 24.9993 35.1616C30.6238 35.1616 35.0884 30.6652 35.0884 24.9998C35.0884 19.3343 30.5354 14.8379 24.9993 14.8379ZM24.9993 31.6544C21.3383 31.6544 18.3032 28.5969 18.3032 24.9098C18.3032 21.2228 21.3392 18.1652 24.9993 18.1652C28.6602 18.1652 31.6953 21.2228 31.6953 24.9098C31.6953 28.5969 28.6602 31.6544 24.9993 31.6544Z" fill="#FE572A"/>
</svg>
