<svg width="50" height="50" viewBox="0 0 50 50" fill="none" xmlns="http://www.w3.org/2000/svg">
<path d="M14.6514 44.0479C14.6514 44.0479 15.434 45.7485 16.3906 45.7485H33.5211C34.4777 45.7485 35.2604 44.0479 35.2604 44.0479H14.6514Z" fill="#FE572A"/>
<path d="M33.609 4.25098H29.8696C29.6957 5.1872 28.913 5.86662 27.9565 5.86662H22.1301C21.1735 5.86662 20.3908 5.18635 20.2169 4.25098H16.3036C15.3471 4.25098 14.6514 5.95166 14.6514 5.95166L35.3473 6.0367C35.3473 6.0367 34.5655 4.25098 33.609 4.25098Z" fill="#FE572A"/>
<path d="M14.6514 44.0479H35.2604L35.3473 6.0367L14.6514 5.95166V44.0479Z" fill="#FE572A"/>
<path d="M34.7383 0H15.2606C12.5648 0 10.3047 2.12583 10.3047 4.84692V45.1531C10.3047 47.7891 12.4787 50 15.2606 50H34.7383C37.4341 50 39.6951 47.8741 39.6951 45.1531V4.84692C39.6951 2.21087 37.521 0 34.7383 0ZM36.4775 43.9626C36.4775 45.4932 35.1731 46.7687 33.6078 46.7687H16.4772C14.9119 46.7687 13.6075 45.4932 13.6075 43.9626V6.03742C13.6075 4.42177 14.738 3.23128 16.3033 3.23128H20.6514C20.9123 3.23128 21.1731 3.48639 21.1731 3.74149V3.91157C21.1731 4.42177 21.6079 4.76191 22.0427 4.76191H27.8692C28.3909 4.76191 28.7388 4.33674 28.7388 3.91157V3.74149C28.7388 3.48639 28.9997 3.23128 29.2606 3.23128H33.5217C35.0861 3.23128 36.3914 4.50681 36.3914 6.03742C36.4775 9.94898 36.4775 39.5408 36.4775 43.9626Z" fill="#FE572A"/>
</svg>
