<svg width="50" height="50" viewBox="0 0 50 50" fill="none" xmlns="http://www.w3.org/2000/svg">
<path d="M24.7063 28.713C24.6086 28.8106 24.511 28.8106 24.4133 28.8106C24.3156 28.8106 24.218 28.8106 24.1203 28.713L13.7679 22.7549L10.3496 24.708L24.4123 32.8135L38.475 24.708L35.0568 22.7549L24.7063 28.713Z" fill="#FE572A"/>
<path d="M24.7063 34.084C24.6086 34.1817 24.511 34.1817 24.4133 34.1817C24.3156 34.1817 24.218 34.1817 24.1203 34.084L13.7679 28.126L10.3496 30.0791L24.4123 38.1846L38.475 30.0791L35.0568 28.126L24.7063 34.084Z" fill="#FE572A"/>
<path d="M10.3506 19.4347L24.4133 27.5402L38.477 19.4347L24.4133 11.2314L10.3506 19.4347Z" fill="#FE572A"/>
<path d="M25 2.44141C12.4999 2.44141 2.44141 12.5977 2.44141 25.0002C2.44141 37.5012 12.5976 47.5599 25 47.5599C37.501 47.5599 47.5585 37.4036 47.5585 25.0002C47.5585 12.5977 37.501 2.44141 25 2.44141ZM39.9417 24.2189C40.137 24.3176 40.2347 24.5119 40.2347 24.7072C40.2347 24.9025 40.137 25.0978 39.9417 25.1955L36.2304 27.4416L39.9417 29.5901C40.137 29.6887 40.2347 29.883 40.2347 30.0783C40.2347 30.2737 40.137 30.469 39.9417 30.5666L24.707 39.3558C24.6093 39.5511 24.5117 39.5511 24.414 39.5511C24.3163 39.5511 24.2187 39.5511 24.121 39.4535L8.8863 30.6643C8.69097 30.5657 8.59333 30.3704 8.59333 30.176C8.59333 29.9807 8.69097 29.7854 8.8863 29.6878L12.5976 27.5393L8.8863 25.3908C8.69097 25.2932 8.59333 25.0978 8.59333 24.9025C8.59333 24.7072 8.69097 24.5119 8.8863 24.4142L12.5976 22.2658L8.8863 20.1173C8.69097 20.0197 8.59333 19.8243 8.59333 19.629C8.59333 19.4347 8.69097 19.2394 8.8863 19.1407L24.121 10.3516C24.3163 10.2539 24.5116 10.2539 24.707 10.3516L39.9417 19.1407C40.137 19.2394 40.2347 19.4347 40.2347 19.629C40.2347 19.8243 40.137 20.0197 39.9417 20.1173L36.2304 22.0705L39.9417 24.2189Z" fill="#FE572A"/>
</svg>
