<svg width="50" height="50" viewBox="0 0 50 50" fill="none" xmlns="http://www.w3.org/2000/svg">
<path d="M19.5215 24.9141H10.8262V30.2315H19.5215V24.9141Z" fill="#FE572A"/>
<path d="M39.0868 24.9141H30.3906V30.2315H39.0868V24.9141Z" fill="#FE572A"/>
<path d="M29.2598 24.9141H20.5645V30.2315H29.2598V24.9141Z" fill="#FE572A"/>
<path d="M3.69582 36.3947C4.73937 36.3947 5.69595 36.9012 6.39164 37.6608C6.39164 36.2259 6.39164 8.62588 6.39164 7.61304C6.39164 6.09377 5.26114 4.91211 3.69582 4.91211C2.21747 4.91211 1 6.17817 1 7.78184V37.6608C1.6957 36.8168 2.65228 36.3947 3.69582 36.3947Z" fill="#FE572A"/>
<path d="M46.1297 37.4915C44.7383 37.4915 43.5208 38.7576 43.4338 40.2769C43.4338 40.5301 43.173 40.7833 42.9121 40.7833C42.6512 40.7833 42.3903 40.5301 42.3903 40.2769C42.3903 39.686 42.3903 12.3392 42.3903 9.13184H7.60804C7.60804 10.9887 7.60804 39.0952 7.60804 40.2769C7.60804 40.5301 7.34716 40.7833 7.08627 40.7833C6.82538 40.7833 6.56451 40.5301 6.56451 40.2769C6.47755 38.7576 5.26007 37.4915 3.86867 37.4915C2.47728 37.4915 1.25981 38.5888 1.17285 40.1081C1.25981 42.9778 3.25995 45.0879 6.04273 45.0879H44.1295C46.9123 45.0879 48.9124 42.9778 48.9994 40.1081C48.7385 38.5888 47.5211 37.4915 46.1297 37.4915ZM18.3905 39.1796H11.3474C11.0865 39.1796 10.8256 38.9264 10.8256 38.6732C10.8256 38.42 11.0865 38.1668 11.3474 38.1668H18.3905C18.6514 38.1668 18.9123 38.42 18.9123 38.6732C18.9123 38.9264 18.6514 39.1796 18.3905 39.1796ZM18.3905 36.5631H11.3474C11.0865 36.5631 10.8256 36.3099 10.8256 36.0567C10.8256 35.8035 11.0865 35.5502 11.3474 35.5502H18.3905C18.6514 35.5502 18.9123 35.8035 18.9123 36.0567C18.9123 36.3099 18.6514 36.5631 18.3905 36.5631ZM18.3905 33.9466H11.3474C11.0865 33.9466 10.8256 33.6934 10.8256 33.4401C10.8256 33.1869 11.0865 32.9337 11.3474 32.9337H18.3905C18.6514 32.9337 18.9123 33.1869 18.9123 33.4401C18.9123 33.6934 18.6514 33.9466 18.3905 33.9466ZM28.739 39.1796H21.695C21.4342 39.1796 21.1733 38.9264 21.1733 38.6732C21.1733 38.42 21.4342 38.1668 21.695 38.1668H28.739C28.9999 38.1668 29.2599 38.42 29.2599 38.6732C29.2599 38.9264 28.999 39.1796 28.739 39.1796ZM28.739 36.5631H21.695C21.4342 36.5631 21.1733 36.3099 21.1733 36.0567C21.1733 35.8035 21.4342 35.5502 21.695 35.5502H28.739C28.9999 35.5502 29.2599 35.8035 29.2599 36.0567C29.2599 36.3099 28.999 36.5631 28.739 36.5631ZM28.739 33.9466H21.695C21.4342 33.9466 21.1733 33.6934 21.1733 33.4401C21.1733 33.1869 21.4342 32.9337 21.695 32.9337H28.739C28.9999 32.9337 29.2599 33.1869 29.2599 33.4401C29.2599 33.6934 28.999 33.9466 28.739 33.9466ZM39.0866 39.1796H32.0427C31.7818 39.1796 31.5209 38.9264 31.5209 38.6732C31.5209 38.42 31.7818 38.1668 32.0427 38.1668H39.0866C39.3475 38.1668 39.6084 38.42 39.6084 38.6732C39.6075 38.9264 39.3466 39.1796 39.0866 39.1796ZM39.0866 36.5631H32.0427C31.7818 36.5631 31.5209 36.3099 31.5209 36.0567C31.5209 35.8035 31.7818 35.5502 32.0427 35.5502H39.0866C39.3475 35.5502 39.6084 35.8035 39.6084 36.0567C39.6075 36.3099 39.3466 36.5631 39.0866 36.5631ZM39.0866 33.9466H32.0427C31.7818 33.9466 31.5209 33.6934 31.5209 33.4401C31.5209 33.1869 31.7818 32.9337 32.0427 32.9337H39.0866C39.3475 32.9337 39.6084 33.1869 39.6084 33.4401C39.6075 33.6934 39.3466 33.9466 39.0866 33.9466ZM40.1293 30.7392C40.1293 30.9924 39.8684 31.2456 39.6075 31.2456C39.1727 31.2456 12.1292 31.2456 10.2161 31.2456C9.95517 31.2456 9.69428 30.9924 9.69428 30.7392V24.4089C9.69428 24.1557 9.95517 23.9025 10.2161 23.9025C10.6509 23.9025 37.6944 23.9025 39.6075 23.9025C39.8684 23.9025 40.1293 24.1557 40.1293 24.4089V30.7392ZM40.1293 19.6823C40.1293 19.9355 39.8684 20.1887 39.6075 20.1887H10.2161C9.95517 20.1887 9.69428 19.9355 9.69428 19.6823V11.7484C9.69428 11.4951 9.95517 11.2419 10.2161 11.2419H39.6075C39.8684 11.2419 40.1293 11.4951 40.1293 11.7484V19.6823Z" fill="#FE572A"/>
<path d="M46.1304 4.91211C44.5651 4.91211 43.4346 6.09377 43.4346 7.61304V8.62588V37.6608C44.1303 36.9012 45.086 36.3947 46.1304 36.3947C47.1739 36.3947 48.1305 36.8168 48.8254 37.5764V7.69744C48.8262 6.17817 47.6079 4.91211 46.1304 4.91211Z" fill="#FE572A"/>
<path d="M39.0871 12.2529H10.8262V19.0896H39.0871V12.2529Z" fill="#FE572A"/>
</svg>
