<svg width="24" height="24" viewBox="0 0 24 24" fill="none" xmlns="http://www.w3.org/2000/svg">
<path d="M19.8261 2.5H4.17391C3.59757 2.50069 3.04503 2.72838 2.63749 3.13314C2.22995 3.5379 2.00069 4.08667 2 4.65909V15.8864C2 17.0765 2.97565 18.0455 4.17391 18.0455H11.5652V20.6364H5.91304C5.79773 20.6364 5.68714 20.6819 5.60561 20.7628C5.52407 20.8438 5.47826 20.9537 5.47826 21.0682C5.47826 21.1827 5.52407 21.2925 5.60561 21.3735C5.68714 21.4545 5.79773 21.5 5.91304 21.5H18.087C18.2023 21.5 18.3129 21.4545 18.3944 21.3735C18.4759 21.2925 18.5217 21.1827 18.5217 21.0682C18.5217 20.9537 18.4759 20.8438 18.3944 20.7628C18.3129 20.6819 18.2023 20.6364 18.087 20.6364H12.4348V18.0455H19.8261C21.0243 18.0455 22 17.0765 22 15.8864V4.65909C22 3.469 21.0243 2.5 19.8261 2.5ZM21.1304 13.7273H2.86957V4.65909C2.86957 3.94486 3.45478 3.36364 4.17391 3.36364H19.8261C20.5452 3.36364 21.1304 3.94486 21.1304 4.65909V13.7273Z" fill="#FE572A"/>
</svg>
