<svg width="60" height="60" viewBox="0 0 60 60" fill="none" xmlns="http://www.w3.org/2000/svg">
<path d="M49.1893 26.601C46.5853 28.8267 47.3809 29.8464 42.8151 31.3265C38.2494 32.8066 36.6169 35.9563 34.6467 36.8337C32.6765 37.7111 29.6139 38.7697 28.3498 40.0576C27.0857 41.3454 25.7799 44.5786 26.9918 45.1873C28.2036 45.796 29.1493 43.1341 30.6299 42.2737C31.9888 41.4842 34.617 40.5989 34.617 40.5989C34.617 40.5989 33.3143 42.3196 33.6136 43.3495C33.7812 43.9265 34.3975 44.2101 35.0856 44.4542C34.6033 44.8335 33.7267 45.9586 35.4025 46.7634C34.4652 49.0308 35.8935 49.707 37.2689 49.6322C38.6444 49.5576 40.1614 49.5567 41.5602 47.8987C42.959 46.2407 43.2838 45.6142 42.8623 44.8511L43.2488 44.8597C43.2488 44.8597 43.2568 47.1801 42.3532 48.8417C41.4496 50.5033 40.9512 52.7681 42.0692 53.365C43.1872 53.9618 43.4519 52.0551 44.8446 50.7069C46.2372 49.3587 46.7569 47.6773 47.901 45.7163C49.8227 42.4225 49.5243 39.4957 54.7209 34.6327C56.2512 33.2008 51.0818 24.9835 49.1893 26.601Z" fill="#FF7548"/>
<path d="M44.1216 42.5303C44.0801 42.5303 44.0396 42.5509 44.016 42.5883C43.9819 42.6424 43.1811 43.9241 43.1243 44.8527C43.12 44.9205 43.1722 44.9789 43.2409 44.9831C43.3093 44.9878 43.3683 44.9356 43.3725 44.8676C43.4256 44.0016 44.2191 42.7314 44.227 42.7187C44.2633 42.661 44.2455 42.5851 44.1874 42.549C44.1668 42.5362 44.1441 42.5303 44.1216 42.5303Z" fill="#E0390C"/>
<path d="M43.7792 36.3799C43.7434 36.3799 43.708 36.3952 43.6833 36.4246C42.1328 38.2815 42.3999 41.2742 42.9455 43.2921C42.7457 43.0918 42.487 42.9412 42.1764 42.9429C42.1078 42.9438 42.0529 42.9996 42.0537 43.0677C42.0546 43.1357 42.1062 43.1895 42.1796 43.1892C42.7987 43.1826 43.1722 44.0503 43.2448 44.2383C43.2496 44.2512 43.2544 44.2643 43.2591 44.277C43.2827 44.3401 43.3536 44.3728 43.4172 44.3504C43.4814 44.3278 43.5153 44.2585 43.4935 44.1948C43.4916 44.189 43.4846 44.1688 43.4723 44.1374C42.7939 42.2846 42.1338 38.6669 43.8748 36.5817C43.9185 36.5293 43.9112 36.4516 43.8582 36.4083C43.8351 36.3892 43.807 36.3799 43.7792 36.3799Z" fill="#E0390C"/>
<path d="M41.2205 39.7138C40.8186 39.7137 40.2003 39.8874 39.3125 40.5589C38.3785 41.2654 37.8958 41.5786 37.5763 41.7858C37.3434 41.9369 37.2028 42.028 37.0463 42.1694C36.9956 42.2152 36.992 42.2931 37.0383 42.3434C37.0845 42.3937 37.163 42.3971 37.2139 42.3514C37.3557 42.2234 37.4899 42.1362 37.7126 41.992C38.0351 41.7827 38.5223 41.4666 39.4635 40.7549C40.6981 39.8208 41.3283 39.9283 41.5421 40.0176C41.7908 40.1218 41.8664 40.3378 41.8859 40.5006C41.9168 40.7573 41.4728 41.558 38.1523 44.036C37.1571 44.7789 36.4265 44.6496 35.1154 44.3353C35.0492 44.3193 34.9816 44.3599 34.9654 44.426C34.9494 44.4922 34.9903 44.5587 35.057 44.5747C36.4042 44.8974 37.2192 45.0407 38.3018 44.2327C40.9834 42.2315 42.2006 41.0364 42.1327 40.4715C42.0939 40.1497 41.9187 39.908 41.6388 39.7908C41.5405 39.7495 41.4027 39.7138 41.2205 39.7138Z" fill="#E0390C"/>
<path d="M35.9705 40.9615C35.9059 40.9615 35.8513 41.0112 35.8466 41.0761C35.8418 41.1439 35.8935 41.2028 35.962 41.2075C36.4272 41.2397 36.8157 41.6048 37.0392 41.8702C36.6284 41.7702 35.9198 41.6386 35.2507 41.7093C35.1825 41.7165 35.133 41.7771 35.1404 41.8449C35.1477 41.9123 35.2097 41.961 35.2772 41.9542C36.2268 41.8536 37.3019 42.1974 37.3125 42.2009C37.3616 42.217 37.416 42.2007 37.4484 42.1606C37.4807 42.1205 37.4846 42.0645 37.4578 42.0205C37.4332 41.9797 36.8437 41.0216 35.9792 40.9617C35.9764 40.9617 35.9735 40.9615 35.9705 40.9615Z" fill="#E0390C"/>
<path d="M37.3607 38.2955C37.3203 38.2955 37.2806 38.315 37.2567 38.351C37.2191 38.4078 37.235 38.4841 37.2923 38.5215C37.3063 38.5307 38.6997 39.4533 39.0381 40.8567C39.0542 40.9229 39.1214 40.9634 39.1879 40.9479C39.2547 40.9321 39.2959 40.8656 39.2799 40.7995C38.9182 39.2995 37.4894 38.3552 37.4288 38.3158C37.4078 38.302 37.3842 38.2955 37.3607 38.2955Z" fill="#E0390C"/>
<path d="M41.8112 41.1571C41.6306 41.1571 41.469 41.2222 41.4263 41.2698C41.3808 41.3208 41.3857 41.3985 41.437 41.4437C41.4825 41.4837 41.5491 41.4845 41.5955 41.4489C41.632 41.4306 41.8284 41.3608 41.9816 41.4411C42.1031 41.5048 42.1735 41.6546 42.1904 41.8869C42.2213 42.3104 40.9837 43.672 39.9892 44.7661C39.6783 45.1082 39.3567 45.462 39.0747 45.7844C37.8623 47.1703 37.2182 47.3239 35.4473 46.6489C35.3836 46.6245 35.3114 46.656 35.2867 46.7196C35.2619 46.783 35.294 46.8543 35.358 46.8787C37.2195 47.5884 37.9857 47.405 39.2625 45.9457C39.5429 45.6252 39.8494 45.288 40.1739 44.9309C41.565 43.4005 42.4743 42.3604 42.4383 41.869C42.4049 41.4124 42.1909 41.2473 42.0172 41.1892C41.9494 41.1663 41.8789 41.1571 41.8112 41.1571Z" fill="#E0390C"/>
<path d="M42.2247 44.3816C41.6395 44.3816 40.9238 44.9034 40.1221 45.5321C38.9833 46.4252 37.6086 46.9469 37.5949 46.952C37.5307 46.9762 37.4985 47.0472 37.5227 47.1109C37.5471 47.1746 37.6192 47.2066 37.6831 47.1823C37.7406 47.1606 39.1077 46.6417 40.2765 45.7253C41.0596 45.111 41.8064 44.5649 42.3137 44.6338C42.4883 44.6572 42.635 44.7523 42.7622 44.9246C42.8028 44.9795 42.8806 44.9913 42.9359 44.9512C42.9913 44.911 43.0034 44.834 42.9627 44.7792C42.7958 44.5532 42.5886 44.4223 42.347 44.3899C42.3069 44.3842 42.2661 44.3816 42.2247 44.3816Z" fill="#E0390C"/>
<path d="M42.2562 45.4402C42.0668 45.4402 41.875 45.5295 41.6851 45.7066C41.3449 46.0237 41.1759 46.3483 41.1828 46.6712C41.1885 46.9393 41.3207 47.1915 41.565 47.4007C41.6169 47.4452 41.6953 47.4395 41.7404 47.388C41.7853 47.3365 41.7796 47.2588 41.7276 47.2143C41.5353 47.0497 41.4356 46.8651 41.4314 46.6659C41.4261 46.4192 41.5727 46.1496 41.8555 45.886C42.0165 45.736 42.1685 45.6704 42.3069 45.6902C42.5179 45.7206 42.6493 45.9406 42.6506 45.9428C42.685 46.0015 42.7611 46.0217 42.8203 45.9879C42.8796 45.954 42.9002 45.8793 42.8664 45.8204C42.8588 45.8072 42.6761 45.496 42.3454 45.447C42.3155 45.4425 42.2859 45.4402 42.2562 45.4402Z" fill="#E0390C"/>
<path d="M41.2147 39.9908C41.1889 39.9908 41.1633 39.9931 41.1381 39.9981C40.8242 40.0587 40.1563 40.483 40.0926 40.8526C40.0574 41.0566 40.2298 41.3001 40.2834 41.3699C40.3371 41.4396 40.5282 41.6689 40.7362 41.6895C41.0987 41.7263 41.7409 41.2321 41.8518 40.9017C41.921 40.6962 41.848 40.4308 41.666 40.2256C41.5323 40.0748 41.3685 39.9908 41.2147 39.9908ZM40.7791 41.4451C40.7727 41.4451 40.7665 41.4448 40.7607 41.4443C40.7029 41.4386 40.5881 41.3598 40.481 41.2205C40.3739 41.0812 40.3277 40.9508 40.3376 40.8941C40.3745 40.6799 40.9103 40.2929 41.1855 40.2398C41.2699 40.224 41.3849 40.2818 41.4792 40.3882C41.602 40.5266 41.657 40.7017 41.6159 40.824C41.5366 41.0597 41.0119 41.4451 40.7791 41.4451Z" fill="#E0390C"/>
<path d="M41.7711 41.7441C41.7288 41.7441 41.6861 41.7502 41.6441 41.7637C41.3234 41.8654 40.8387 42.444 40.7939 42.7786C40.7712 42.9481 40.8868 43.1041 40.9578 43.182C41.067 43.3021 41.2628 43.4431 41.4442 43.4352C41.5129 43.4333 41.5669 43.3766 41.5649 43.3086C41.5629 43.2407 41.5056 43.186 41.4372 43.1891C41.3709 43.1882 41.2464 43.1313 41.1423 43.0172C41.0589 42.9255 41.0353 42.8488 41.0403 42.811C41.0724 42.572 41.4915 42.0707 41.7199 41.9983C41.8441 41.959 42.0314 42.0814 42.1124 42.2554C42.1412 42.3172 42.2151 42.344 42.2774 42.3157C42.3398 42.2873 42.367 42.2141 42.3383 42.1523C42.2375 41.9359 42.0072 41.7441 41.7711 41.7441Z" fill="#E0390C"/>
<path d="M43.4738 50.7291C43.4224 50.7291 43.3714 50.734 43.3208 50.7438C42.9892 50.8084 42.6986 51.0933 42.5027 51.5463C42.2049 52.2344 41.9979 52.8996 42.7249 53.4732C42.7786 53.5155 42.8569 53.5068 42.8996 53.4536C42.9423 53.4004 42.9335 53.3229 42.8798 53.2806C42.3365 52.8521 42.3989 52.4111 42.7312 51.6434C42.8939 51.2676 43.1202 51.034 43.3687 50.9857C43.6082 50.9389 43.8749 51.0569 44.1605 51.3359C44.2094 51.3837 44.2881 51.3831 44.3363 51.3347C44.3845 51.2863 44.3839 51.2083 44.335 51.1606C44.0415 50.8736 43.7525 50.7291 43.4738 50.7291Z" fill="#E0390C"/>
<path d="M5.03603 11.7218C6.52172 14.8063 6.79331 20.1816 9.04416 23.0936C11.295 26.0056 14.4955 30.1773 15.3597 31.62C16.0945 32.8467 17.969 31.8538 17.3799 29.2692C16.7907 26.6845 15.1327 25.4759 15.1327 25.4759C15.1327 25.4759 17.13 26.0132 17.9535 26.7922C17.6072 27.1603 17.1978 28.2436 18.6238 28.987C20.6052 30.02 23.4229 30.911 24.2284 29.9754C25.0338 29.0399 24.2348 27.6178 24.2348 27.6178C24.6946 27.6476 25.396 26.6677 25.0432 25.6719C24.6905 24.676 24.5486 24.351 24.5486 24.351C25.1361 24.5814 25.9194 24.041 25.8152 22.7409C25.7111 21.4407 24.8812 19.0957 24.8812 19.0957C24.8812 19.0957 26.0719 18.9765 27.0709 19.5979C28.0697 20.2193 28.9248 22.6623 29.801 22.9794C30.8247 23.3498 31.3664 22.6127 30.3015 20.1755C29.2366 17.7384 28.9467 17.3633 26.9717 16.6442C24.9965 15.9252 18.858 12.8212 17.2152 12.391C15.5724 11.9607 12.9121 7.35348 12.4276 6.5853C11.9428 5.81725 4.41828 10.4392 5.03603 11.7218Z" fill="white"/>
<path d="M21.6808 23.5311C21.6574 23.5311 21.6339 23.5376 21.6131 23.5512C21.5555 23.5883 21.5393 23.6646 21.5769 23.7216C21.5995 23.7559 23.8404 27.1579 24.1254 27.6769C24.1582 27.7367 24.2336 27.7588 24.294 27.7261C24.3542 27.6936 24.3766 27.6187 24.3437 27.559C24.0538 27.0316 21.8774 23.7274 21.785 23.587C21.7611 23.5508 21.7214 23.5311 21.6808 23.5311Z" fill="#E0390C"/>
<path d="M23.0072 21.0079C22.9957 21.0079 22.9842 21.0095 22.9727 21.0129C22.9067 21.0317 22.8687 21.0999 22.8877 21.1653C22.9495 21.3775 23.3831 22.2539 23.8028 23.1016C24.066 23.6336 24.3147 24.1362 24.4351 24.4018C24.4631 24.4639 24.5366 24.4917 24.5994 24.4637C24.662 24.4359 24.69 24.363 24.6619 24.3009C24.5398 24.0315 24.2903 23.5272 24.026 22.9933C23.6305 22.1942 23.1823 21.2885 23.1266 21.0972C23.1108 21.0431 23.0611 21.0079 23.0072 21.0079Z" fill="#E0390C"/>
<path d="M23.9748 17.0994C23.942 17.0994 23.9092 17.1122 23.8849 17.1376C23.8375 17.1869 23.8395 17.2648 23.8892 17.3117C24.0525 17.4658 24.581 18.4445 24.7615 19.1276C24.7789 19.1934 24.8469 19.2332 24.9131 19.2156C24.9796 19.1983 25.0193 19.1311 25.0019 19.0653C24.8282 18.4074 24.2924 17.3521 24.0605 17.1334C24.0365 17.1106 24.0057 17.0994 23.9748 17.0994Z" fill="#E0390C"/>
<path d="M17.9535 26.6694C17.9146 26.6694 17.8764 26.6874 17.8521 26.7211C17.8123 26.7766 17.8254 26.8535 17.8813 26.8929C17.9269 26.9251 17.9839 26.9657 18.0501 27.0132C18.67 27.4568 20.1216 28.4957 20.9922 28.7027C21.0586 28.7184 21.126 28.6778 21.1421 28.6117C21.1581 28.5455 21.117 28.479 21.0502 28.4631C20.2274 28.2673 18.8037 27.2486 18.1957 26.8135C18.1287 26.7656 18.0714 26.7245 18.0254 26.6921C18.0036 26.6768 17.9784 26.6694 17.9535 26.6694Z" fill="#E0390C"/>
<path d="M12.9182 24.0583C12.8882 24.0583 12.8582 24.0689 12.8344 24.0906C12.7838 24.1365 12.7801 24.2142 12.8265 24.2645C12.859 24.2998 13.6403 25.1352 15.0951 25.5938C15.1605 25.6144 15.2303 25.5785 15.2512 25.5138C15.272 25.449 15.2358 25.3797 15.1704 25.3591C13.7825 24.9217 13.0175 24.1066 13.0099 24.0983C12.9854 24.0719 12.9517 24.0583 12.9182 24.0583Z" fill="#E0390C"/>
<path d="M30.3016 20.0521C30.2936 20.0521 30.2852 20.0529 30.277 20.0546C30.0082 20.1083 29.8107 20.2379 29.6897 20.44C29.4646 20.8166 29.5646 21.3623 29.688 21.7539L29.6968 21.7818C29.8829 22.3724 29.9962 22.5665 30.9573 22.3637C31.0244 22.3495 31.0673 22.2841 31.053 22.2176C31.0387 22.1511 30.9724 22.1084 30.9056 22.1228C30.1168 22.2893 30.0926 22.2117 29.9342 21.7084L29.9254 21.6803C29.7721 21.1944 29.7646 20.7985 29.9038 20.5656C29.9884 20.4241 30.1265 20.336 30.3261 20.2962C30.3935 20.2828 30.437 20.2179 30.4234 20.1511C30.4115 20.0924 30.3597 20.0521 30.3016 20.0521Z" fill="#E0390C"/>
<path d="M14.714 29.5452C14.5015 29.5452 14.2909 29.6133 14.0856 29.7488C14.0285 29.7865 14.0131 29.863 14.0511 29.9196C14.089 29.9763 14.1662 29.9917 14.2235 29.9538C14.4476 29.8057 14.6659 29.7594 14.8914 29.8123C15.262 29.8991 15.6519 30.2692 15.9889 30.8546C16.0898 31.0297 16.1158 31.1953 16.066 31.3465C15.9647 31.6543 15.5873 31.8252 15.5836 31.8269C15.521 31.8547 15.493 31.9274 15.5209 31.9895C15.5489 32.0514 15.622 32.0795 15.6847 32.0519C15.7043 32.0433 16.1653 31.8366 16.3019 31.4245C16.375 31.2039 16.3424 30.9712 16.2049 30.7325C15.942 30.2761 15.5107 29.7043 14.9487 29.5726C14.8701 29.5544 14.7919 29.5452 14.714 29.5452Z" fill="#E0390C"/>
<path d="M35.483 9.21394C34.5645 9.21394 33.7021 9.58941 33.4393 10.1716C33.3171 10.4424 33.2368 10.9818 34.073 11.5516C35.0663 12.2285 36.5037 11.9931 38.073 11.6015C38.1547 11.9853 38.1839 12.414 38.157 12.8818C37.9804 15.9722 34.4407 16.469 31.3178 16.9073C28.8723 17.2505 26.7604 17.5469 26.6241 19.0217C26.6178 19.0894 26.6682 19.1494 26.7365 19.1555C26.8059 19.1619 26.8654 19.1118 26.8716 19.0442C26.99 17.7634 29.0118 17.4797 31.3526 17.1511C34.5701 16.6995 38.2169 16.1877 38.4052 12.8957C38.4352 12.372 38.4 11.9235 38.3189 11.5392C38.5211 11.4873 38.7253 11.4335 38.9306 11.3794C41.802 10.6231 44.771 9.84112 46.242 13.0787C47.5388 15.933 44.0078 17.8316 39.9193 20.03C34.3961 22.9999 19.7752 32.2951 18.0294 38.1091C17.3501 40.3713 17.7795 42.7308 19.306 45.1225C19.8724 46.01 20.2429 46.8197 20.4158 47.5394C20.2976 47.5404 20.1797 47.5413 20.0622 47.5422C16.5946 47.5699 13.5999 47.5937 13.2084 49.0158C13.0269 49.6751 13.3722 50.2867 14.1806 50.7381C14.9628 51.1747 16.0891 51.4056 17.1939 51.3569C18.4257 51.3019 19.4483 50.913 20.0731 50.2616C20.546 49.7688 20.9275 48.9871 20.7202 47.7828C25.0914 47.7416 29.8294 47.5714 31.3079 44.7931C31.8946 43.6906 32.0437 42.6578 31.751 41.7234C31.3958 40.5895 30.5005 39.9449 30.1629 39.7357C30.3761 39.466 30.7998 38.867 30.666 38.5171C30.6307 38.4247 30.5424 38.3078 30.3221 38.2758C30.0971 38.2431 29.9651 38.332 29.8939 38.4121C29.7333 38.5928 29.7175 38.9184 29.745 39.2101C29.5236 38.9314 29.2222 38.6385 28.9226 38.6185C28.8025 38.6103 28.626 38.6433 28.472 38.8452C28.3221 39.0418 28.3442 39.2014 28.3891 39.3006C28.5888 39.7428 29.6615 39.8655 29.9388 39.89C30.2221 40.0459 32.7523 41.5511 31.088 44.6784C29.6714 47.3402 24.9853 47.4973 20.6709 47.537C20.5098 46.8313 20.1538 45.9903 19.5159 44.9908C18.0295 42.662 17.6095 40.3703 18.2674 38.1793C19.9887 32.4473 34.5938 23.1734 40.0375 20.2463C44.2348 17.9894 47.8598 16.0403 46.4682 12.9775C44.9107 9.54939 41.6993 10.3951 38.8663 11.1414C38.6625 11.1951 38.4599 11.2484 38.2596 11.2998C37.8577 9.86821 36.7793 9.43216 36.2399 9.30212C35.9911 9.24227 35.7349 9.21394 35.483 9.21394ZM35.6878 11.7336C35.1224 11.7336 34.621 11.6262 34.2138 11.3488C33.8532 11.103 33.4655 10.7168 33.6661 10.2722C33.9726 9.59323 35.27 9.3217 36.1816 9.54163C37.1103 9.76539 37.7406 10.4056 38.0135 11.3623C37.1786 11.5706 36.3845 11.7336 35.6878 11.7336ZM30.0377 39.4919C29.9716 39.1514 29.9436 38.7295 30.0809 38.5751C30.1097 38.5426 30.1626 38.5022 30.2863 38.5196C30.4081 38.5374 30.4268 38.5861 30.4339 38.6045C30.4986 38.7739 30.2735 39.1735 30.0377 39.4919ZM29.7361 39.619C29.2625 39.5525 28.7076 39.4027 28.6162 39.2003C28.5998 39.1639 28.5876 39.103 28.6706 38.994C28.7649 38.8704 28.8496 38.8606 28.9061 38.8647C29.1627 38.8817 29.5071 39.2774 29.7361 39.619ZM16.8842 51.1165C15.9359 51.1165 14.9879 50.906 14.3029 50.5237C13.8977 50.2974 13.2479 49.8092 13.4484 49.0808C13.7902 47.8387 16.6978 47.8156 20.0643 47.7886C20.1986 47.7876 20.3328 47.7865 20.468 47.7854C20.6407 48.7324 20.4503 49.5117 19.8933 50.0922C19.2154 50.7986 18.0496 51.1165 16.8842 51.1165Z" fill="#DD5758"/>
<path d="M27.5787 16.8329C27.5555 16.8329 27.532 16.8393 27.5111 16.8528C26.9566 17.2099 26.4883 18.3118 26.5917 18.9288C26.2856 18.9728 25.6683 19.1 25.5258 19.4203C25.4846 19.5127 25.4644 19.6615 25.602 19.8445C25.7403 20.0285 25.8923 20.0532 25.9962 20.0426C26.1999 20.0206 26.3918 19.8324 26.5432 19.6278C26.5352 19.8988 26.5723 20.1861 26.7355 20.3306C26.8195 20.4049 26.9722 20.475 27.2229 20.3861C27.4743 20.2971 27.5489 20.146 27.5672 20.0349C27.6354 19.62 27.012 19.0875 26.8531 18.9595C26.7023 18.485 27.1615 17.3719 27.6465 17.0593C27.704 17.0223 27.7204 16.946 27.6829 16.889C27.6593 16.8526 27.6194 16.8329 27.5787 16.8329ZM25.954 19.7986C25.9174 19.7986 25.8656 19.7829 25.8012 19.6972C25.7214 19.5911 25.7453 19.5373 25.7531 19.5196C25.821 19.3668 26.195 19.2481 26.5298 19.1885C26.3693 19.4756 26.14 19.7794 25.9691 19.7977C25.9644 19.7982 25.9593 19.7986 25.954 19.7986ZM27.0032 20.1817C26.9406 20.1817 26.913 20.1573 26.9012 20.1468C26.7645 20.0259 26.7732 19.6093 26.829 19.2636C27.0867 19.497 27.3516 19.8146 27.3218 19.9952C27.3177 20.02 27.3054 20.0953 27.1392 20.1541C27.0816 20.1745 27.0372 20.1817 27.0032 20.1817Z" fill="#DD5758"/>
<path d="M29.9748 39.6478C29.9557 39.6478 29.9362 39.6522 29.9179 39.6614C29.8569 39.6926 29.833 39.7669 29.8644 39.8274C30.4744 40.9979 30.4879 42.4827 30.4879 42.4975C30.4882 42.5654 30.5446 42.6189 30.6127 42.6201C30.6813 42.6199 30.7367 42.5645 30.7365 42.4965C30.7362 42.4334 30.7233 40.9388 30.0853 39.7144C30.0633 39.6722 30.0199 39.6478 29.9748 39.6478Z" fill="#DD5758"/>
</svg>
