<svg width="50" height="50" viewBox="0 0 50 50" fill="none" xmlns="http://www.w3.org/2000/svg">
<path d="M4.93066 9.46503V29.6252H45.0724V9.46503C45.0724 7.37046 43.3117 5.625 41.1997 5.625H8.80425C6.69051 5.625 4.93066 7.37046 4.93066 9.46503Z" fill="#FE572A"/>
<path d="M45.0724 30.7607H4.93066V32.9426H45.0724V30.7607Z" fill="#FE572A"/>
<path d="M8.27602 44.3754H20.3369V41.6699H2.64258C3.96225 43.3281 6.07512 44.3754 8.27602 44.3754Z" fill="#FE572A"/>
<path d="M30.1943 44.3754H41.7262C43.9271 44.3754 46.0399 43.3281 47.3605 41.6699H30.1943V44.3754Z" fill="#FE572A"/>
<path d="M29.1379 41.6699H21.3916V44.3754H29.1379V41.6699Z" fill="#FE572A"/>
<path d="M4.75394 33.9893L2.37695 40.5348C4.57698 40.5348 45.688 40.5348 47.624 40.5348L45.247 33.9893H4.75394ZM22.0072 35.6474H23.1517C23.4158 35.6474 23.6799 35.9093 23.6799 36.1711C23.6799 36.4338 23.4149 36.6956 23.1517 36.6956H22.0072C21.7422 36.6956 21.479 36.4338 21.479 36.1711C21.391 35.9093 21.6551 35.6474 22.0072 35.6474ZM17.6063 35.6474H18.7508C19.0149 35.6474 19.279 35.9093 19.279 36.1711C19.279 36.4338 19.014 36.6956 18.7508 36.6956H17.6063C17.3422 36.6956 17.0772 36.4338 17.0772 36.1711C16.9901 35.9093 17.2533 35.6474 17.6063 35.6474ZM9.85915 38.9638H8.71467C8.44969 38.9638 8.18646 38.702 8.18646 38.4402C8.18646 38.1784 8.45056 37.9157 8.71467 37.9157H9.85915C10.1233 37.9157 10.3874 38.1784 10.3874 38.4402C10.3874 38.702 10.2113 38.9638 9.85915 38.9638ZM9.85915 36.782H8.71467C8.44969 36.782 8.18646 36.5202 8.18646 36.2584C8.18646 35.9966 8.45056 35.7338 8.71467 35.7338H9.85915C10.1233 35.7338 10.3874 35.9966 10.3874 36.2584C10.3874 36.5202 10.2113 36.782 9.85915 36.782ZM14.2609 38.9638H13.1165C12.8515 38.9638 12.5883 38.702 12.5883 38.4402C12.5883 38.1784 12.8524 37.9157 13.1165 37.9157H14.2609C14.525 37.9157 14.7883 38.1784 14.7883 38.4402C14.7883 38.702 14.6131 38.9638 14.2609 38.9638ZM14.2609 36.782H13.1165C12.8515 36.782 12.5883 36.5202 12.5883 36.2584C12.5883 35.9966 12.8524 35.7338 13.1165 35.7338H14.2609C14.525 35.7338 14.7883 35.9966 14.7883 36.2584C14.7883 36.5202 14.6131 36.782 14.2609 36.782ZM27.4646 38.9638H17.6063C17.3422 38.9638 17.0772 38.702 17.0772 38.4402C17.0772 38.1784 17.3422 37.9157 17.6063 37.9157H27.5535C27.8176 37.9157 28.0809 38.1784 28.0809 38.4402C27.9937 38.702 27.8167 38.9638 27.4646 38.9638ZM27.4646 36.782H26.3201C26.056 36.782 25.7928 36.5202 25.7928 36.2584C25.7928 35.9966 26.0569 35.7338 26.3201 35.7338H27.4646C27.7296 35.7338 27.9937 35.9966 27.9937 36.2584C27.9937 36.5202 27.8167 36.782 27.4646 36.782ZM31.8664 38.9638H30.7219C30.4578 38.9638 30.1937 38.702 30.1937 38.4402C30.1937 38.1784 30.4587 37.9157 30.7219 37.9157H31.8664C32.1314 37.9157 32.3955 38.1784 32.3955 38.4402C32.3955 38.702 32.2185 38.9638 31.8664 38.9638ZM31.8664 36.782H30.7219C30.4578 36.782 30.1937 36.5202 30.1937 36.2584C30.1937 35.9966 30.4587 35.7338 30.7219 35.7338H31.8664C32.1314 35.7338 32.3955 35.9966 32.3955 36.2584C32.3955 36.5202 32.2185 36.782 31.8664 36.782ZM36.2682 38.9638H35.1237C34.8587 38.9638 34.5955 38.702 34.5955 38.4402C34.5955 38.1784 34.8596 37.9157 35.1237 37.9157H36.2682C36.5323 37.9157 36.7973 38.1784 36.7973 38.4402C36.7973 38.702 36.6203 38.9638 36.2682 38.9638ZM36.2682 36.782H35.1237C34.8587 36.782 34.5955 36.5202 34.5955 36.2584C34.5955 35.9966 34.8596 35.7338 35.1237 35.7338H36.2682C36.5323 35.7338 36.7973 35.9966 36.7973 36.2584C36.7973 36.5202 36.6203 36.782 36.2682 36.782ZM40.67 38.9638H39.5255C39.2606 38.9638 38.9973 38.702 38.9973 38.4402C38.9973 38.1784 39.2614 37.9157 39.5255 37.9157H40.67C40.9341 37.9157 41.1982 38.1784 41.1982 38.4402C41.1982 38.702 41.0221 38.9638 40.67 38.9638ZM40.67 36.782H39.5255C39.2606 36.782 38.9973 36.5202 38.9973 36.2584C38.9973 35.9966 39.2614 35.7338 39.5255 35.7338H40.67C40.9341 35.7338 41.1982 35.9966 41.1982 36.2584C41.1982 36.5202 41.0221 36.782 40.67 36.782Z" fill="#FE572A"/>
</svg>
