<svg width="100" height="100" viewBox="0 0 100 100" fill="none" xmlns="http://www.w3.org/2000/svg">
<path fill-rule="evenodd" clip-rule="evenodd" d="M18.3144 46.2759C17.0349 46.2759 15.7555 45.9561 14.6588 45.3163C11.1861 43.3058 9.95232 38.8278 11.9629 35.3093C13.288 33.0703 15.7098 31.6995 18.3144 31.6995C19.5938 31.6995 20.8275 32.0193 21.9699 32.659C25.4427 34.6696 26.6307 39.1476 24.6202 42.6204C23.3407 44.8594 20.9189 46.2759 18.3144 46.2759ZM39.1966 48.1494C37.9172 48.1494 36.6834 47.7838 35.5411 47.1441C32.0683 45.1336 30.8803 40.6555 32.8908 37.1828C34.1702 34.9438 36.592 33.5272 39.1966 33.5272C40.476 33.5272 41.7555 33.8928 42.8521 34.5325C44.5428 35.4921 45.7309 37.0457 46.2335 38.9648C46.7818 40.8383 46.5077 42.8032 45.5481 44.4938C44.223 46.7329 41.8012 48.1494 39.1966 48.1494ZM37.5059 25.6221C36.2265 25.6221 34.947 25.2566 33.8504 24.6169C30.3319 22.6063 29.1439 18.1283 31.1544 14.6555C32.4796 12.4165 34.9014 11 37.5059 11C38.7854 11 40.0191 11.3199 41.1615 11.9596C44.6342 13.9701 45.8223 18.4482 43.8117 21.9666C42.5323 24.2056 40.1105 25.6221 37.5059 25.6221ZM65.6079 27.7241C64.3284 27.7241 63.0947 27.3585 61.9523 26.7188C60.2616 25.7592 59.0736 24.1599 58.5709 22.2865C58.0683 20.413 58.3425 18.4482 59.3021 16.7575C60.5815 14.5185 63.0033 13.1019 65.6079 13.1019C66.8873 13.1019 68.1667 13.4675 69.2634 14.1072C70.9541 15.0668 72.1878 16.6204 72.6905 18.5395C73.1931 20.413 72.9189 22.3779 71.9593 24.0685C70.6342 26.3076 68.2124 27.7241 65.6079 27.7241Z" fill="#FE572A"/>
<path fill-rule="evenodd" clip-rule="evenodd" d="M43.9036 38.5537C43.4923 38.5537 43.0811 38.3709 42.8069 38.0511C42.35 37.457 42.4871 36.5888 43.0811 36.1319L60.0793 22.972C60.6734 22.515 61.5415 22.6064 61.9985 23.2004C62.4554 23.7945 62.364 24.6627 61.77 25.1196L44.7261 38.2795C44.4976 38.4623 44.1777 38.5537 43.9036 38.5537ZM38.7401 36.269C38.0547 36.269 37.4607 35.7206 37.415 35.0352L36.5925 24.3428C36.5468 23.566 37.0951 22.9263 37.8263 22.8806C38.6031 22.7892 39.2428 23.3832 39.2885 24.1143L40.111 34.8068C40.1567 35.5836 39.6083 36.2233 38.8772 36.269H38.7401ZM30.9264 82.5572C30.4695 82.5572 30.0125 82.3287 29.7384 81.8718C29.3728 81.2321 29.6013 80.4096 30.2867 80.044L41.5275 73.6925C42.1672 73.327 43.0354 73.5554 43.4009 74.2409C43.7665 74.8806 43.538 75.7031 42.8526 76.0686L31.6118 82.4201C31.3834 82.5115 31.1549 82.5572 30.9264 82.5572ZM63.6435 76.8454C62.9581 76.8454 62.3183 76.2514 62.3183 75.5203L61.0389 52.4447C60.9932 51.7136 61.5872 51.0739 62.3183 51.0282C63.0951 50.9825 63.7349 51.5765 63.7806 52.3076L65.0143 75.3832C65.06 76.16 64.466 76.7997 63.7349 76.7997C63.6892 76.7997 63.6892 76.8454 63.6435 76.8454ZM46.9194 69.9913C46.6909 69.9913 46.4168 69.8999 46.1883 69.7171C45.5486 69.3059 45.4115 68.4377 45.8227 67.8437L57.5661 50.5713C57.9774 49.9772 58.8456 49.7945 59.4853 50.2057C60.0793 50.6626 60.2621 51.4851 59.8052 52.1249L48.0618 69.3516C47.7876 69.7628 47.3763 69.9913 46.9194 69.9913ZM24.2094 63.1372C23.6611 63.1372 23.1584 62.8173 22.9299 62.3147C22.6558 61.5836 22.9756 60.8068 23.6611 60.5326L56.0125 47.3727C56.698 47.0985 57.4748 47.4184 57.7946 48.1495C58.0688 48.8349 57.7489 49.6117 57.0178 49.8858L24.712 63.0458C24.5292 63.0915 24.3465 63.1372 24.2094 63.1372ZM79.3623 61.9948C79.0424 61.9948 78.7226 61.8577 78.4941 61.6749L65.8368 51.2567C65.2885 50.7997 65.1971 49.9315 65.654 49.3375C66.1567 48.7435 67.0248 48.6521 67.5732 49.1547L80.2305 59.573C80.7788 60.03 80.8702 60.8981 80.4132 61.4922C80.1391 61.812 79.7278 61.9948 79.3623 61.9948Z" fill="#FE572A"/>
<path fill-rule="evenodd" clip-rule="evenodd" d="M50.0726 72.9614C49.4786 72.9614 48.9302 72.5958 48.7475 72.0018C48.5647 71.2707 48.9759 70.4939 49.707 70.3111L78.8142 62.0862C79.5454 61.9034 80.2765 62.3146 80.5049 63.0457C80.6877 63.7769 80.2765 64.508 79.5454 64.7364L50.4382 72.9157C50.3468 72.9614 50.2097 72.9614 50.0726 72.9614ZM31.4751 84.4306C30.744 84.4306 30.1499 83.8823 30.1042 83.1512C30.0585 82.4201 30.6526 81.7347 31.4294 81.7347L59.9882 80.0897C60.765 79.9983 61.4048 80.5923 61.4505 81.3691C61.4961 82.1002 60.9021 82.7399 60.171 82.7856L31.5664 84.4306H31.4751ZM25.3977 80.7751C24.8951 80.7751 24.3925 80.4552 24.164 79.9526L19.8687 70.5396C19.5946 69.8542 19.8687 69.0774 20.5541 68.7575C21.2396 68.4377 22.0621 68.7575 22.3819 69.4429L26.6315 78.8559C26.9513 79.5414 26.6772 80.3182 25.9918 80.638C25.809 80.7294 25.5805 80.7751 25.3977 80.7751ZM33.3028 41.6609H33.1657L24.1183 40.8841C23.3415 40.7927 22.7932 40.153 22.8389 39.3762C22.9302 38.645 23.57 38.0967 24.3468 38.1424L33.3942 38.9649C34.171 39.0106 34.7193 39.696 34.628 40.4271C34.5823 41.1582 33.9882 41.6609 33.3028 41.6609ZM22.3362 35.9948C22.0164 35.9948 21.6965 35.8577 21.4223 35.6292C20.874 35.1266 20.8283 34.2584 21.3309 33.7101L32.4346 21.7382C32.983 21.1899 33.8512 21.1442 34.3995 21.6468C34.9478 22.1494 34.9478 23.0176 34.4452 23.566L23.3415 35.5378C23.0673 35.8577 22.7018 35.9948 22.3362 35.9948ZM59.7141 21.3269H59.577L43.3099 20.0932C42.5787 20.0475 42.0304 19.4535 42.0304 18.7681V18.631C42.1218 17.8999 42.7615 17.3059 43.4926 17.3972L59.8055 18.5853C60.5366 18.6767 61.0392 19.2707 61.0392 19.9561V20.0475C60.9935 20.7786 60.3995 21.3269 59.7141 21.3269ZM83.338 31.9737C80.1851 31.9737 77.6719 29.4148 77.6719 26.3076C77.6719 23.2004 80.1851 20.6415 83.338 20.6415C86.4452 20.6415 89.0041 23.2004 89.0041 26.3076C89.0041 29.4148 86.4452 31.9737 83.338 31.9737ZM77.9918 48.4236C75.3415 48.4236 73.1939 46.276 73.1939 43.6257C73.1939 40.9298 75.3415 38.7821 77.9918 38.7821C80.6877 38.7821 82.8353 40.9298 82.8353 43.6257C82.8353 46.276 80.6877 48.4236 77.9918 48.4236Z" fill="#FE572A"/>
<path fill-rule="evenodd" clip-rule="evenodd" d="M66.2482 88.6345C62.09 88.6345 58.7086 85.2531 58.7086 81.095C58.7086 76.8911 62.09 73.5097 66.2482 73.5097C70.4521 73.5097 73.8334 76.8911 73.8334 81.095C73.8334 85.2531 70.4521 88.6345 66.2482 88.6345ZM45.96 78.4447C42.8071 78.4447 40.2939 75.9315 40.2939 72.7786C40.2939 69.6714 42.8071 67.1126 45.96 67.1126C49.0672 67.1126 51.626 69.6714 51.626 72.7786C51.626 75.9315 49.0672 78.4447 45.96 78.4447ZM27.1797 89.0001C24.0724 89.0001 21.5136 86.4412 21.5136 83.334C21.5136 80.1811 24.0724 77.6679 27.1797 77.6679C30.3326 77.6679 32.8457 80.1811 32.8457 83.334C32.8457 86.4412 30.3326 89.0001 27.1797 89.0001ZM18.5434 71.9104C14.3853 71.9104 11.0039 68.5291 11.0039 64.3709C11.0039 60.167 14.3853 56.7857 18.5434 56.7857C22.7473 56.7857 26.1287 60.167 26.1287 64.3709C26.1287 68.5291 22.7473 71.9104 18.5434 71.9104ZM62.09 53.7698C58.0232 53.7698 54.6876 50.4342 54.6876 46.3674C54.6876 42.3006 58.0232 39.0106 62.09 39.0106C66.1568 39.0106 69.4468 42.3006 69.4468 46.3674C69.4468 50.4342 66.1568 53.7698 62.09 53.7698ZM83.3378 67.8894C80.1849 67.8894 77.6717 65.3762 77.6717 62.2233C77.6717 59.1161 80.1849 56.5572 83.3378 56.5572C86.445 56.5572 89.0039 59.1161 89.0039 62.2233C89.0039 65.3762 86.445 67.8894 83.3378 67.8894Z" fill="#201E1F"/>
</svg>
