<svg width="100" height="100" viewBox="0 0 100 100" fill="none" xmlns="http://www.w3.org/2000/svg">
<path d="M49.9276 48.5869C49.9281 45.5137 51.1567 42.5666 53.3434 40.3936C55.53 38.2207 58.4956 37 61.5878 37H63.2744C65.0043 36.981 66.7208 37.3032 68.3245 37.9479C69.9282 38.5927 71.3873 39.5472 72.6174 40.7562C73.8474 41.9653 74.8239 43.4047 75.4904 44.9914C76.1568 46.578 76.5 48.2803 76.5 49.9996C76.5 51.719 76.1568 53.4212 75.4904 55.0079C74.8239 56.5945 73.8474 58.034 72.6174 59.243C71.3873 60.452 69.9282 61.4066 68.3245 62.0513C66.7208 62.6961 65.0043 63.0183 63.2744 62.9992H61.5878C58.4959 62.9988 55.5307 61.7779 53.3444 59.6051C51.1581 57.4322 49.9297 54.4853 49.9292 51.4124L49.9276 48.5869Z" fill="#00B6FF"/>
<path d="M23.5 76.0012C23.5 72.5533 24.8782 69.2466 27.3313 66.8085C29.7844 64.3705 33.1116 63.0008 36.5809 63.0008H49.9276V75.8675C49.9276 83.1214 43.9454 89 36.6465 89C29.423 89 23.5 83.1803 23.5 76.0012Z" fill="#24CB71"/>
<path d="M49.9276 11.0008V37L63.2744 37C65.0043 37.019 66.7208 36.6968 68.3245 36.0521C69.9282 35.4073 71.3873 34.4528 72.6174 33.2438C73.8474 32.0348 74.8239 30.5953 75.4904 29.0086C76.1568 27.422 76.5 25.7197 76.5 24.0004C76.5 22.2811 76.1568 20.5788 75.4904 18.9922C74.8239 17.4055 73.8474 15.966 72.6174 14.757C71.3873 13.548 69.9282 12.5935 68.3245 11.9487C66.7208 11.304 65.0043 10.9818 63.2744 11.0008H49.9276Z" fill="#FF7237"/>
<path d="M23.5 23.9996C23.5 27.4475 24.8782 30.7542 27.3313 33.1923C29.7844 35.6303 33.1116 37 36.5809 37L49.9276 37V11.0008L36.5809 11.0008C33.1119 11.0008 29.785 12.3702 27.3319 14.8079C24.8788 17.2456 23.5004 20.5519 23.5 23.9996Z" fill="#FF3737"/>
<path d="M23.5 50.0004C23.5 53.4483 24.8782 56.755 27.3313 59.193C29.7844 61.6311 33.1116 63.0008 36.5809 63.0008H49.9276V37.0016H36.5809C33.1119 37.0016 29.785 38.371 27.3319 40.8087C24.8788 43.2464 23.5004 46.5527 23.5 50.0004Z" fill="#874FFF"/>
</svg>
