<svg width="100" height="100" viewBox="0 0 100 100" fill="none" xmlns="http://www.w3.org/2000/svg">
<path d="M49.9385 48.5508C49.939 45.3988 51.1914 42.3761 53.4203 40.1475C55.6492 37.9188 58.6721 36.6668 61.8241 36.6668H63.5433C65.3066 36.6473 67.0563 36.9778 68.691 37.6391C70.3258 38.3004 71.8131 39.2793 73.0669 40.5194C74.3207 41.7594 75.3161 43.2358 75.9954 44.8631C76.6748 46.4904 77.0246 48.2363 77.0246 49.9998C77.0246 51.7632 76.6748 53.5091 75.9954 55.1364C75.3161 56.7637 74.3207 58.2402 73.0669 59.4802C71.8131 60.7202 70.3258 61.6992 68.691 62.3605C67.0563 63.0218 65.3066 63.3522 63.5433 63.3327H61.8241C58.6724 63.3323 55.6499 62.0801 53.4214 59.8515C51.1928 57.6229 49.9406 54.6004 49.9402 51.4487L49.9385 48.5508Z" fill="#00B6FF"/>
<path d="M23 76.6682C23 73.1319 24.4048 69.7404 26.9054 67.2398C29.4059 64.7393 32.7974 63.3345 36.3337 63.3345H49.9385V76.5311C49.9385 83.971 43.8406 90.0003 36.4007 90.0003C29.0375 90.0003 23 84.0314 23 76.6682Z" fill="#24CB71"/>
<path d="M49.9385 10.0011V36.6669H63.5433C65.3066 36.6864 67.0563 36.356 68.691 35.6947C70.3258 35.0334 71.8131 34.0544 73.0669 32.8144C74.3207 31.5744 75.3161 30.098 75.9954 28.4707C76.6748 26.8433 77.0246 25.0974 77.0246 23.334C77.0246 21.5706 76.6748 19.8247 75.9954 18.1973C75.3161 16.57 74.3207 15.0936 73.0669 13.8536C71.8131 12.6136 70.3258 11.6346 68.691 10.9733C67.0563 10.312 65.3066 9.98155 63.5433 10.0011H49.9385Z" fill="#FF7237"/>
<path d="M23 23.3331C23 26.8694 24.4048 30.2609 26.9054 32.7615C29.4059 35.262 32.7974 36.6668 36.3337 36.6668H49.9385V10.001H36.3337C32.7977 10.001 29.4065 11.4056 26.9059 13.9058C24.4054 16.406 23.0004 19.797 23 23.3331Z" fill="#FF3737"/>
<path d="M23 50.0006C23 53.5369 24.4048 56.9284 26.9054 59.429C29.4059 61.9295 32.7974 63.3343 36.3337 63.3343H49.9385V36.6685H36.3337C32.7977 36.6685 29.4065 38.073 26.9059 40.5732C24.4054 43.0735 23.0004 46.4645 23 50.0006Z" fill="#874FFF"/>
</svg>
