<svg width="100" height="100" viewBox="0 0 100 100" fill="none" xmlns="http://www.w3.org/2000/svg">
<path d="M24.1667 11H75.8333C83.6667 11 90 17.3333 90 25.1667V74.8333C90 82.6667 83.6667 89 75.8333 89H24.1667C16.3333 89 10 82.6667 10 74.8333V25.1667C10 17.3333 16.3333 11 24.1667 11Z" fill="#330000"/>
<path d="M48.6665 57.6666H36.2665L33.7332 65.5C33.6665 65.8 33.3999 66 33.0999 65.9666H26.8332C26.4665 65.9666 26.3665 65.7666 26.4665 65.3666L37.1999 34.4666C37.2999 34.1333 37.3999 33.7666 37.5332 33.3666C37.6665 32.6666 37.7332 31.9333 37.7332 31.2C37.6999 31.0333 37.8332 30.8666 37.9999 30.8333H46.6332C46.8999 30.8333 47.0332 30.9333 47.0665 31.1L59.2332 65.4333C59.3332 65.8 59.2332 65.9666 58.8999 65.9666H51.9332C51.6999 66 51.4665 65.8333 51.3999 65.6L48.6665 57.6666ZM38.1999 50.9H46.6665C46.4665 50.2 46.1999 49.3666 45.8999 48.5C45.5999 47.6 45.2999 46.6333 44.9999 45.6333C44.6665 44.6 44.3665 43.6 44.0332 42.5666C43.6999 41.5333 43.3999 40.5666 43.1332 39.6C42.8665 38.6666 42.6332 37.8 42.3999 37H42.3332C42.0332 38.4333 41.6665 39.8666 41.1999 41.3C40.6999 42.9 40.1999 44.5666 39.6665 46.2333C39.1999 47.9333 38.6999 49.5 38.1999 50.9ZM66.6665 36.6666C65.5665 36.7 64.4999 36.2666 63.6999 35.5C62.9332 34.6666 62.5332 33.5666 62.5665 32.4333C62.5332 31.3 62.9665 30.2333 63.7665 29.4666C64.5665 28.7 65.6332 28.3 66.7332 28.3C68.0332 28.3 69.0332 28.7 69.7665 29.4666C70.4999 30.2666 70.8999 31.3333 70.8665 32.4333C70.8999 33.5666 70.4999 34.6666 69.6999 35.5C68.9332 36.3 67.7999 36.7333 66.6665 36.6666ZM62.9332 65.6V39.9333C62.9332 39.6 63.0665 39.4666 63.3665 39.4666H69.9665C70.2665 39.4666 70.3999 39.6333 70.3999 39.9333V65.6C70.3999 65.9666 70.2665 66.1333 69.9665 66.1333H63.4332C63.0999 66.1333 62.9332 65.9333 62.9332 65.6Z" fill="#FF9A00"/>
</svg>
