<svg width="100" height="100" viewBox="0 0 100 100" fill="none" xmlns="http://www.w3.org/2000/svg">
<path d="M24.1667 11H75.8333C83.6667 11 90 17.3333 90 25.1667V74.8333C90 82.6667 83.6667 89 75.8333 89H24.1667C16.3333 89 10 82.6667 10 74.8333V25.1667C10 17.3333 16.3333 11 24.1667 11Z" fill="#001E36"/>
<path d="M28 65.7001V31.4001C28 31.1668 28.1 31.0334 28.3333 31.0334C28.9 31.0334 29.4333 31.0334 30.2 31.0001C31 30.9667 31.8333 30.9667 32.7333 30.9334C33.6333 30.9001 34.6 30.9001 35.6333 30.8667C36.6667 30.8334 37.6667 30.8334 38.6667 30.8334C41.4 30.8334 43.6667 31.1667 45.5333 31.8667C47.2 32.4334 48.7333 33.3668 50 34.6001C51.0667 35.6668 51.9 36.9667 52.4333 38.4001C52.9333 39.8001 53.2 41.2334 53.2 42.7334C53.2 45.6001 52.5333 47.9667 51.2 49.8334C49.8667 51.7001 48 53.1001 45.8333 53.9001C43.5667 54.7334 41.0667 55.0334 38.3333 55.0334C37.5333 55.0334 37 55.0334 36.6667 55.0001C36.3333 54.9668 35.8667 54.9667 35.2333 54.9667V65.6668C35.2667 65.9001 35.1 66.1001 34.8667 66.1334C34.8333 66.1334 34.8 66.1334 34.7333 66.1334H28.4C28.1333 66.1334 28 66.0001 28 65.7001ZM35.2667 37.4668V48.6667C35.7333 48.7001 36.1667 48.7334 36.5667 48.7334H38.3333C39.6333 48.7334 40.9333 48.5334 42.1667 48.1334C43.2333 47.8334 44.1667 47.2001 44.9 46.3667C45.6 45.5334 45.9333 44.4001 45.9333 42.9334C45.9667 41.9001 45.7 40.8668 45.1667 39.9668C44.6 39.1001 43.8 38.4334 42.8333 38.0667C41.6 37.5667 40.2667 37.3667 38.9 37.4001C38.0333 37.4001 37.2667 37.4001 36.6333 37.4334C35.9667 37.4001 35.5 37.4334 35.2667 37.4668Z" fill="#31A8FF"/>
<path d="M73.9999 46.6335C72.9999 46.1002 71.9333 45.7335 70.7999 45.5002C69.5666 45.2335 68.3333 45.0668 67.0666 45.0668C66.3999 45.0335 65.6999 45.1335 65.0666 45.3002C64.6333 45.4002 64.2666 45.6335 64.0333 45.9668C63.8666 46.2335 63.7666 46.5668 63.7666 46.8668C63.7666 47.1668 63.8999 47.4668 64.0999 47.7335C64.3999 48.1002 64.7999 48.4002 65.2333 48.6335C65.9999 49.0335 66.7999 49.4002 67.5999 49.7335C69.3999 50.3335 71.1333 51.1668 72.7333 52.1668C73.8333 52.8668 74.7333 53.8002 75.3666 54.9335C75.8999 56.0002 76.1666 57.1668 76.1333 58.3668C76.1666 59.9335 75.6999 61.5002 74.8333 62.8002C73.8999 64.1335 72.5999 65.1668 71.0999 65.7668C69.4666 66.4668 67.4666 66.8335 65.0666 66.8335C63.5333 66.8335 62.0333 66.7002 60.5333 66.4002C59.3666 66.2002 58.1999 65.8335 57.1333 65.3335C56.8999 65.2002 56.7333 64.9668 56.7666 64.7002V58.9002C56.7666 58.8002 56.7999 58.6668 56.8999 58.6002C56.9999 58.5335 57.1 58.5668 57.2 58.6335C58.5 59.4002 59.8666 59.9335 61.3333 60.2668C62.5999 60.6002 63.9333 60.7668 65.2666 60.7668C66.5333 60.7668 67.4333 60.6002 68.0333 60.3002C68.5666 60.0668 68.9333 59.5002 68.9333 58.9002C68.9333 58.4335 68.6666 58.0002 68.1333 57.5668C67.5999 57.1335 66.4999 56.6335 64.8666 56.0002C63.1666 55.4002 61.5999 54.6002 60.1333 53.6002C59.0999 52.8668 58.2333 51.9002 57.5999 50.7668C57.0666 49.7002 56.7999 48.5335 56.8333 47.3668C56.8333 45.9335 57.2333 44.5668 57.9666 43.3335C58.7999 42.0002 60.0333 40.9335 61.4666 40.2668C63.0333 39.4668 64.9999 39.1002 67.3666 39.1002C68.7333 39.1002 70.1333 39.2002 71.4999 39.4002C72.4999 39.5335 73.4666 39.8002 74.3666 40.1668C74.4999 40.2002 74.6333 40.3335 74.7 40.4668C74.7333 40.6002 74.7666 40.7335 74.7666 40.8668V46.3002C74.7666 46.4335 74.6999 46.5668 74.5999 46.6335C74.2999 46.7002 74.1333 46.7002 73.9999 46.6335Z" fill="#31A8FF"/>
</svg>
