<svg width="100" height="100" viewBox="0 0 100 100" fill="none" xmlns="http://www.w3.org/2000/svg">
<path d="M57.5 53.75L51.875 12.5H51.455C41.6296 12.5287 32.2148 16.4445 25.2672 23.3922C18.3195 30.3398 14.4037 39.7546 14.375 49.58V50L57.5 53.75Z" fill="#ED6C47"/>
<path d="M52.295 12.5H51.875V50L70.625 57.5L89.375 50V49.58C89.3463 39.7546 85.4305 30.3398 78.4828 23.3922C71.5352 16.4445 62.1204 12.5287 52.295 12.5Z" fill="#FF8F6B"/>
<path d="M89.375 50V50.4125C89.3468 60.24 85.4303 69.657 78.4812 76.6062C71.532 83.5553 62.115 87.4718 52.2875 87.5H51.4625C41.635 87.4718 32.218 83.5553 25.2688 76.6062C18.3197 69.657 14.4032 60.24 14.375 50.4125V50H89.375Z" fill="#D35230"/>
<path opacity="0.1" d="M53.75 30.9312V70.9437C53.7455 71.6237 53.5402 72.2872 53.1599 72.851C52.7796 73.4147 52.2413 73.8536 51.6125 74.1125C51.2032 74.2857 50.7633 74.3749 50.3188 74.375H23.225C22.7 73.775 22.1938 73.1375 21.725 72.5C16.9481 66.1276 14.3688 58.3766 14.375 50.4125V49.5875C14.3641 42.404 16.4635 35.3756 20.4125 29.375C20.825 28.7375 21.2563 28.1 21.725 27.5H50.3188C51.2267 27.5069 52.0955 27.8706 52.7375 28.5126C53.3795 29.1546 53.7432 30.0233 53.75 30.9312Z" fill="black"/>
<path opacity="0.2" d="M51.875 32.8062V72.8187C51.875 73.2632 51.7857 73.7032 51.6125 74.1125C51.3536 74.7413 50.9148 75.2796 50.351 75.6599C49.7873 76.0401 49.1238 76.2454 48.4438 76.25H24.9313C24.338 75.6477 23.7689 75.0222 23.225 74.375C22.7 73.775 22.1938 73.1375 21.725 72.5C16.9481 66.1276 14.3688 58.3766 14.375 50.4125V49.5875C14.3641 42.404 16.4635 35.3756 20.4125 29.375H48.4438C49.3517 29.3819 50.2205 29.7456 50.8625 30.3876C51.5045 31.0296 51.8682 31.8983 51.875 32.8062Z" fill="black"/>
<path opacity="0.2" d="M51.875 32.8062V69.0687C51.8682 69.9766 51.5045 70.8454 50.8625 71.4874C50.2205 72.1294 49.3517 72.4931 48.4438 72.5H21.725C16.9481 66.1276 14.3688 58.3766 14.375 50.4125V49.5875C14.3641 42.404 16.4635 35.3756 20.4125 29.375H48.4438C49.3517 29.3819 50.2205 29.7456 50.8625 30.3876C51.5045 31.0296 51.8682 31.8983 51.875 32.8062Z" fill="black"/>
<path opacity="0.2" d="M50 32.8062V69.0687C49.9932 69.9766 49.6295 70.8454 48.9875 71.4874C48.3455 72.1294 47.4767 72.4931 46.5688 72.5H21.725C16.9481 66.1276 14.3688 58.3766 14.375 50.4125V49.5875C14.3641 42.404 16.4635 35.3756 20.4125 29.375H46.5688C47.4767 29.3819 48.3455 29.7456 48.9875 30.3876C49.6295 31.0296 49.9932 31.8983 50 32.8062Z" fill="black"/>
<path d="M46.5631 29.375H12.1869C10.2887 29.375 8.75 30.9137 8.75 32.8119V67.1881C8.75 69.0863 10.2887 70.625 12.1869 70.625H46.5631C48.4613 70.625 50 69.0863 50 67.1881V32.8119C50 30.9137 48.4613 29.375 46.5631 29.375Z" fill="url(#paint0_linear_166_83)"/>
<path d="M29.7507 38.5415C31.9885 38.3905 34.207 39.0405 36.0095 40.3752C36.7514 41.0376 37.3331 41.86 37.7105 42.7803C38.088 43.7005 38.2513 44.6945 38.1882 45.6871C38.2128 47.0852 37.8402 48.4616 37.1138 49.6565C36.3784 50.8308 35.3189 51.7672 34.0632 52.3527C32.6276 53.0204 31.058 53.3501 29.4751 53.3165H25.127V61.3977H20.6738V38.5415H29.7507ZM25.1232 49.8252H28.9557C30.1707 49.9144 31.3762 49.5548 32.3438 48.8146C32.7392 48.4353 33.0466 47.9741 33.2446 47.4632C33.4425 46.9524 33.5261 46.4043 33.4895 45.8577C33.4895 43.339 32.0257 42.0796 29.0982 42.0796H25.1232V49.8252Z" fill="white"/>
<defs>
<linearGradient id="paint0_linear_166_83" x1="15.9162" y1="26.69" x2="42.8337" y2="73.31" gradientUnits="userSpaceOnUse">
<stop stop-color="#CA4C28"/>
<stop offset="0.5" stop-color="#C5401E"/>
<stop offset="1" stop-color="#B62F14"/>
</linearGradient>
</defs>
</svg>
