<svg width="101" height="100" viewBox="0 0 101 100" fill="none" xmlns="http://www.w3.org/2000/svg">
<path d="M74.9 10H26.9C18.0634 10 10.9 17.1634 10.9 26V74C10.9 82.8366 18.0634 90 26.9 90H74.9C83.7365 90 90.9 82.8366 90.9 74V26C90.9 17.1634 83.7365 10 74.9 10Z" fill="black"/>
<mask id="mask0_14_295" style="mask-type:luminance" maskUnits="userSpaceOnUse" x="25" y="22" width="51" height="52">
<path d="M75.9188 22.3193H25.9002V73.5252H75.9188V22.3193Z" fill="white"/>
</mask>
<g mask="url(#mask0_14_295)">
<path fill-rule="evenodd" clip-rule="evenodd" d="M67.4598 40.7429C67.4598 30.5681 58.2209 22.3193 46.8236 22.3193C42.8709 22.3193 39.6689 30.5681 39.6689 40.7429C39.6689 43.2881 39.8686 45.7141 40.2326 47.9207H33.2261L25.9006 73.522H46.8268V59.1696C58.2209 59.1696 67.4566 50.9176 67.4566 40.7461L67.4598 40.7429ZM46.8236 25.6937C48.8917 25.6937 50.5668 32.4327 50.5668 40.7429C50.5668 49.053 48.8917 55.792 46.8236 55.792C44.7554 55.792 43.0803 49.053 43.0803 40.7429C43.0803 32.4327 44.7554 25.6937 46.8236 25.6937Z" fill="white"/>
<path fill-rule="evenodd" clip-rule="evenodd" d="M67.8625 59.1697H46.8462L54.9061 73.5253H75.9192L67.8625 59.1697Z" fill="white"/>
</g>
</svg>
