<svg width="100" height="100" viewBox="0 0 100 100" fill="none" xmlns="http://www.w3.org/2000/svg">
<path d="M73.4 11H26.6C17.9844 11 11 17.9844 11 26.6V73.4C11 82.0156 17.9844 89 26.6 89H73.4C82.0156 89 89 82.0156 89 73.4V26.6C89 17.9844 82.0156 11 73.4 11Z" fill="black"/>
<path fill-rule="evenodd" clip-rule="evenodd" d="M66.1452 42.613C66.1452 32.6926 57.1373 24.65 46.0249 24.65C42.171 24.65 39.0491 32.6926 39.0491 42.613C39.0491 45.0946 39.2438 47.4599 39.5987 49.6114H32.7674L25.625 74.5726H46.028V60.579C57.1373 60.579 66.1421 52.5333 66.1421 42.6161L66.1452 42.613ZM46.0249 27.94C48.0413 27.94 49.6745 34.5106 49.6745 42.613C49.6745 50.7154 48.0413 57.2859 46.0249 57.2859C44.0084 57.2859 42.3752 50.7154 42.3752 42.613C42.3752 34.5106 44.0084 27.94 46.0249 27.94Z" fill="white"/>
<path fill-rule="evenodd" clip-rule="evenodd" d="M66.5379 60.579H46.047L53.9054 74.5758H74.3931L66.5379 60.579Z" fill="white"/>
</svg>
