<svg width="100" height="100" viewBox="0 0 100 100" fill="none" xmlns="http://www.w3.org/2000/svg">
<path d="M89.334 10H30.666C28.6413 10 27 11.6413 27 13.666V30L61 40L93 30V13.666C93 11.6413 91.3587 10 89.334 10Z" fill="#41A5EE"/>
<path d="M93 30H27V50L61 56L93 50V30Z" fill="#2B7CD3"/>
<path d="M27 50V70L59 74L93 70V50H27Z" fill="#185ABD"/>
<path d="M30.666 90H89.334C91.3587 90 93 88.3587 93 86.334V70H27V86.334C27 88.3587 28.6413 90 30.666 90Z" fill="#103F91"/>
<path opacity="0.1" d="M51.334 26H27V76H51.334C53.3559 75.9934 54.9934 74.3559 55 72.334V29.666C54.9934 27.6441 53.3559 26.0066 51.334 26Z" fill="black"/>
<path opacity="0.2" d="M49.334 28H27V78H49.334C51.3559 77.9934 52.9934 76.3559 53 74.334V31.666C52.9934 29.6441 51.3559 28.0066 49.334 28Z" fill="black"/>
<path opacity="0.2" d="M49.334 28H27V74H49.334C51.3559 73.9934 52.9934 72.3559 53 70.334V31.666C52.9934 29.6441 51.3559 28.0066 49.334 28Z" fill="black"/>
<path opacity="0.2" d="M47.334 28H27V74H47.334C49.3559 73.9934 50.9934 72.3559 51 70.334V31.666C50.9934 29.6441 49.3559 28.0066 47.334 28Z" fill="black"/>
<path d="M10.666 28H47.334C49.3587 28 51 29.6413 51 31.666V68.334C51 70.3587 49.3587 72 47.334 72H10.666C8.64133 72 7 70.3587 7 68.334V31.666C7 29.6413 8.64133 28 10.666 28Z" fill="url(#paint0_linear_166_84)"/>
<path d="M22.0446 56.1159C22.1166 56.6819 22.1646 57.1739 22.1866 57.5959H22.2706C22.3026 57.1959 22.3692 56.7139 22.4706 56.1499C22.5719 55.5859 22.6632 55.1093 22.7446 54.7199L26.6006 38.0839H31.5866L35.5866 54.4699C35.819 55.4888 35.9854 56.5216 36.0846 57.5619H36.1506C36.2252 56.554 36.3641 55.552 36.5666 54.5619L39.7566 38.0759H44.2946L38.6906 61.9159H33.3886L29.5886 46.1279C29.4786 45.6739 29.3526 45.0799 29.2146 44.3499C29.0766 43.6199 28.9906 43.0859 28.9566 42.7499H28.8906C28.8466 43.1379 28.7606 43.7139 28.6326 44.4779C28.5046 45.2419 28.4019 45.8072 28.3246 46.1739L24.7525 61.9119H19.3605L13.7266 38.0839H18.3465L21.8206 54.7539C21.8986 55.0959 21.9726 55.5519 22.0446 56.1159Z" fill="white"/>
<defs>
<linearGradient id="paint0_linear_166_84" x1="14.6437" y1="25.1355" x2="43.3563" y2="74.8645" gradientUnits="userSpaceOnUse">
<stop stop-color="#2368C4"/>
<stop offset="0.5" stop-color="#1A5DBE"/>
<stop offset="1" stop-color="#1146AC"/>
</linearGradient>
</defs>
</svg>
